<?xml version="1.0" encoding="iso-8859-1"?>
<!-- Uploaded to: SVG Repo, www.svgrepo.com, Generator: SVG Repo Mixer Tools -->
<svg fill="#000000" height="800px" width="800px" version="1.1" id="Layer_1" xmlns="http://www.w3.org/2000/svg" xmlns:xlink="http://www.w3.org/1999/xlink" 
	 viewBox="0 0 512 512" xml:space="preserve">
<g>
	<g>
		<g>
			<path d="M506.613,256.297c-19.871-11.462-42.118-18.936-64.903-21.893c0.387-33.323-8.14-65.968-24.892-94.989
				c-1.925-3.323-5.473-5.376-9.312-5.376h-0.011c-24.688,0.032-49.441,5.075-72.226,14.667c-0.742-1.333-1.484-2.667-2.258-3.989
				c-17.333-29.398-42.097-53.968-71.624-71.054c-3.323-1.925-7.43-1.925-10.763,0c-29.538,17.054-54.323,41.624-71.667,71.043
				c-0.774,1.312-1.516,2.656-2.258,3.989c-22.763-9.581-47.505-14.624-72.194-14.656h-0.011c-3.839,0-7.387,2.054-9.312,5.376
				c-16.763,29.022-25.28,61.667-24.893,94.989c-22.785,2.957-45.032,10.43-64.903,21.893C2.054,258.211,0,261.77,0,265.609
				c0.011,62.065,33.398,119.882,87.129,150.903c26.871,15.516,56.989,23.269,87.118,23.269c28.129,0,56.269-6.774,81.753-20.301
				c25.484,13.527,53.613,20.301,81.753,20.301c30.118,0,60.247-7.763,87.118-23.269c53.731-31.021,87.118-88.839,87.129-150.903
				C512,261.77,509.946,258.211,506.613,256.297z M97.882,397.888c-45.28-26.14-74.075-74-76.247-125.989
				c15.613-8.151,32.688-13.581,50.14-15.989c3.086,24.355,10.935,47.591,23.409,69.194c16.591,28.731,40.538,52.505,69.269,68.742
				c15.495,8.763,32.161,15.226,49.398,19.237C175.215,423.405,133.312,418.34,97.882,397.888z M113.806,314.351
				c-12.688-21.989-19.979-45.871-21.645-70.979c-2.054-30.548,4.366-60.731,18.602-87.699c19.333,0.774,38.57,5.011,56.462,12.376
				c-10.237,24.247-15.57,50.452-15.57,77.032c0,35.366,9.441,70.075,27.301,100.376c10.151,17.215,22.871,32.763,37.581,46.118
				C173.796,380.931,136.312,353.329,113.806,314.351z M256,394.641c-23.968-15.011-44.118-35.688-58.516-60.108
				c-15.914-26.989-24.323-57.925-24.323-89.452s8.409-62.462,24.323-89.462C211.882,131.2,232.032,110.534,256,95.523
				c23.957,15.032,44.097,35.71,58.484,60.118c15.914,26.989,24.323,57.925,24.323,89.441s-8.409,62.441-24.323,89.441
				C300.097,358.931,279.957,379.609,256,394.641z M333.011,345.437c17.86-30.301,27.301-65,27.301-100.355
				c0-26.57-5.333-52.774-15.57-77.021c17.914-7.376,37.161-11.613,56.495-12.387c14.237,26.968,20.656,57.151,18.602,87.71
				c-1.667,25.097-8.957,48.979-21.645,70.968c-22.516,39-60.022,66.613-102.785,77.247
				C310.129,378.222,322.86,362.673,333.011,345.437z M414.118,397.888c-35.43,20.452-77.323,25.516-115.957,15.194
				c17.237-4.011,33.892-10.473,49.387-19.226c28.72-16.247,52.677-40.022,69.269-68.753c12.473-21.613,20.323-44.839,23.409-69.194
				c17.452,2.409,34.527,7.839,50.14,15.989C488.194,323.888,459.398,371.749,414.118,397.888z"/>
			<path d="M315.172,293.297c2.159-6.826,3.866-13.794,5.102-20.835c0.177-1.006,0.344-2.013,0.501-3.022
				c1.259-8.07,1.902-16.223,1.902-24.357l0,0v0c0-1.484-0.301-2.898-0.845-4.184c-1.633-3.859-5.456-6.569-9.907-6.569
				c-5.935,0-10.753,4.817-10.753,10.753c0,41.581-19.419,82.043-51.935,108.237c-4.624,3.731-5.355,10.495-1.624,15.118
				c2.129,2.645,5.237,4.011,8.376,4.011c2.376,0,4.753-0.774,6.742-2.376c18.462-14.871,33.688-34.065,44.021-55.495
				c3.075-6.398,5.72-13,7.925-19.753C314.882,294.329,315.054,293.824,315.172,293.297z"/>
		</g>
	</g>
</g>
<g id="SVGCleanerId_0">
	<g>
		<path d="M311.925,234.329c-5.935,0-10.753,4.817-10.753,10.753c0,41.581-19.419,82.043-51.935,108.237
			c-4.624,3.731-5.355,10.495-1.624,15.118c2.129,2.645,5.237,4.011,8.376,4.011c2.376,0,4.753-0.774,6.742-2.376
			c18.462-14.871,33.688-34.065,44.021-55.495c3.075-6.398,5.72-13,7.925-19.753c0.204-0.495,0.376-1,0.495-1.527
			c4.935-15.602,7.505-31.946,7.505-48.215C322.677,239.146,317.86,234.329,311.925,234.329z"/>
	</g>
</g>
<g>
	<g>
		<path d="M311.925,234.329c-5.935,0-10.753,4.817-10.753,10.753c0,41.581-19.419,82.043-51.935,108.237
			c-4.624,3.731-5.355,10.495-1.624,15.118c2.129,2.645,5.237,4.011,8.376,4.011c2.376,0,4.753-0.774,6.742-2.376
			c18.462-14.871,33.688-34.065,44.021-55.495c3.075-6.398,5.72-13,7.925-19.753c0.204-0.495,0.376-1,0.495-1.527
			c4.935-15.602,7.505-31.946,7.505-48.215C322.677,239.146,317.86,234.329,311.925,234.329z"/>
	</g>
</g>
</svg>