<?xml version="1.0" encoding="iso-8859-1"?>
<!-- Uploaded to: SVG Repo, www.svgrepo.com, Generator: SVG Repo Mixer Tools -->
<svg fill="#000000" height="800px" width="800px" version="1.1" id="Layer_1" xmlns="http://www.w3.org/2000/svg" xmlns:xlink="http://www.w3.org/1999/xlink" 
	 viewBox="0 0 512.001 512.001" xml:space="preserve">
<g>
	<g>
		<path d="M512.001,256.001c0-12.041-7.885-21.97-19.622-24.707c-21.953-5.12-44.506-8.111-67.213-8.942
			c20.662-9.457,40.354-20.851,58.676-33.982c9.796-7.02,13.281-19.211,8.674-30.334c-4.608-11.126-15.692-17.283-27.585-15.319
			c-22.24,3.671-44.221,9.538-65.518,17.46c15.471-16.646,29.302-34.708,41.204-53.85c6.364-10.235,4.919-22.831-3.595-31.346
			c-8.514-8.514-21.111-9.958-31.346-3.595c-19.143,11.902-37.206,25.734-53.85,41.204c7.923-21.297,13.79-43.279,17.46-65.519
			c1.962-11.891-4.193-22.976-15.318-27.583c-11.125-4.609-23.315-1.122-30.335,8.674c-13.131,18.322-24.526,38.013-33.982,58.675
			c-0.831-22.708-3.822-45.26-8.942-67.213C277.971,7.885,268.041,0,256,0c-12.041,0-21.969,7.886-24.707,19.622
			c-5.12,21.953-8.111,44.506-8.942,67.213c-9.457-20.662-20.852-40.353-33.982-58.675c-7.02-9.796-19.212-13.281-30.335-8.674
			c-11.124,4.608-17.28,15.692-15.318,27.583c3.671,22.24,9.538,44.222,17.461,65.519c-16.646-15.471-34.708-29.302-53.85-41.204
			c-10.236-6.364-22.832-4.919-31.346,3.595c-8.514,8.514-9.959,21.111-3.595,31.346c11.902,19.143,25.734,37.205,41.204,53.85
			c-21.296-7.923-43.278-13.789-65.519-17.46c-11.893-1.962-22.976,4.194-27.583,15.319c-4.608,11.124-1.122,23.315,8.674,30.334
			c18.322,13.131,38.013,24.525,58.675,33.982c-22.708,0.831-45.26,3.822-67.212,8.942C7.886,234.03,0.001,243.959,0.001,256.001
			s7.885,21.97,19.622,24.707c21.953,5.12,44.506,8.111,67.213,8.942c-20.662,9.457-40.353,20.852-58.675,33.982
			c-9.796,7.02-13.281,19.211-8.674,30.335c4.037,9.746,13.046,15.679,23.213,15.679c1.437,0,2.898-0.118,4.37-0.361
			c22.24-3.67,44.221-9.537,65.518-17.459c-15.47,16.644-29.302,34.707-41.204,53.85c-6.364,10.235-4.919,22.831,3.595,31.346
			c4.975,4.975,11.344,7.537,17.821,7.537c4.608,0,9.27-1.296,13.524-3.942c19.142-11.902,37.204-25.733,53.85-41.204
			c-7.923,21.297-13.79,43.278-17.46,65.519c-1.962,11.891,4.194,22.976,15.319,27.584c3.272,1.355,6.638,2.01,9.936,2.01
			c7.914,0,15.444-3.771,20.399-10.685c13.131-18.323,24.525-38.014,33.982-58.675c0.831,22.708,3.822,45.26,8.942,67.213
			c2.737,11.737,12.666,19.622,24.707,19.622c0,0,0,0,0.001,0c12.04,0,21.97-7.886,24.707-19.622
			c5.12-21.953,8.111-44.506,8.942-67.213c9.457,20.661,20.851,40.353,33.982,58.675c4.955,6.914,12.485,10.685,20.399,10.685
			c3.299,0,6.663-0.656,9.936-2.011c11.125-4.608,17.28-15.693,15.318-27.583c-3.67-22.24-9.537-44.221-17.459-65.518
			c16.644,15.47,34.707,29.302,53.85,41.204c4.255,2.645,8.917,3.942,13.524,3.942c6.477,0,12.846-2.562,17.821-7.537
			c8.514-8.514,9.959-21.112,3.595-31.346c-11.902-19.142-25.733-37.204-41.205-53.85c21.297,7.923,43.279,13.789,65.519,17.46
			c1.474,0.243,2.932,0.361,4.37,0.361c10.166,0,19.177-5.933,23.213-15.679c4.608-11.125,1.122-23.315-8.674-30.335
			c-18.322-13.132-38.013-24.526-58.676-33.982c22.708-0.831,45.26-3.822,67.213-8.942
			C504.115,277.969,512.001,268.041,512.001,256.001z M468.367,163.546c2.916-0.482,4.159,1.402,4.641,2.567
			c0.482,1.165,0.933,3.376-1.467,5.096c-20.508,14.698-42.844,27.095-66.387,36.846c-6.826,2.828-13.797,5.447-20.82,7.825
			c-2.396-7.69-5.477-15.128-9.217-22.258c6.649-3.285,13.428-6.361,20.254-9.189C418.913,174.682,443.472,167.654,468.367,163.546z
			 M357.376,136.548c18.017-18.02,38.017-33.912,59.445-47.234c2.508-1.56,4.378-0.297,5.271,0.594
			c0.892,0.892,2.154,2.761,0.595,5.271c-13.323,21.426-29.213,41.427-47.233,59.447c-5.229,5.229-10.672,10.322-16.257,15.211
			c-2.579-3.082-5.297-6.055-8.136-8.895c-2.841-2.84-5.813-5.559-8.895-8.136C347.056,147.219,352.146,141.778,357.376,136.548z
			 M304.467,186.062l20.209-20.209c4.024,3.075,7.865,6.429,11.454,10.018c3.632,3.632,7.021,7.524,10.125,11.601l-20.189,20.19
			L304.467,186.062z M347.666,256.13l-21.599,21.599l-21.599-21.599l21.599-21.599L347.666,256.13z M312.632,221.097l-21.599,21.599
			l-21.599-21.599l21.599-21.599L312.632,221.097z M277.597,256.13l-21.599,21.599l-21.599-21.599l21.599-21.599L277.597,256.13z
			 M255.998,207.661l-21.599-21.599l21.599-21.599l21.599,21.599L255.998,207.661z M242.563,221.097l-21.599,21.599l-21.599-21.599
			l21.599-21.599L242.563,221.097z M207.53,256.13L185.93,277.73l-21.599-21.599l21.599-21.599L207.53,256.13z M185.929,207.661
			l-20.187-20.187c3.106-4.078,6.494-7.971,10.127-11.604c3.589-3.588,7.429-6.942,11.452-10.015l20.207,20.207L185.929,207.661z
			 M172.496,221.097l-21.599,21.599l-6.479-6.479c0.001-0.01,0.003-0.019,0.004-0.027c0.139-0.791,0.735-3.829,0.906-4.606
			c2.122-9.668,5.479-18.931,10.001-27.655L172.496,221.097z M150.896,269.565l21.599,21.599l-17.083,17.081
			c-4.568-8.775-7.951-18.097-10.087-27.828c-0.171-0.777-0.767-3.678-0.88-4.403L150.896,269.565z M185.93,304.599l21.599,21.599
			l-20.057,20.057c-4.077-3.104-7.97-6.493-11.601-10.125c-3.589-3.588-6.943-7.429-10.017-11.454L185.93,304.599z M199.365,291.164
			l21.599-21.599l21.599,21.599l-21.599,21.599L199.365,291.164z M255.998,304.6l21.599,21.599l-21.599,21.599l-21.599-21.599
			L255.998,304.6z M269.433,291.164l21.599-21.599l21.599,21.599l-21.599,21.599L269.433,291.164z M326.067,304.599l20.079,20.079
			c-3.074,4.023-6.427,7.863-10.015,11.451c-3.632,3.634-7.526,7.024-11.604,10.128l-20.059-20.059L326.067,304.599z
			 M339.501,291.164l21.599-21.599l6.454,6.454c-0.113,0.723-0.709,3.622-0.879,4.399c-2.136,9.732-5.521,19.055-10.089,27.832
			L339.501,291.164z M361.099,242.695L339.5,221.096l17.172-17.17c4.523,8.725,7.88,17.988,10.003,27.657
			c0.171,0.777,0.765,3.815,0.905,4.607c0.001,0.007,0.002,0.016,0.003,0.023L361.099,242.695z M303.945,106.845
			c9.752-23.542,22.148-45.878,36.846-66.387c1.721-2.399,3.931-1.951,5.096-1.467c1.164,0.482,3.047,1.727,2.566,4.64
			c-4.108,24.895-11.135,49.454-20.887,72.997c-2.827,6.824-5.903,13.604-9.189,20.253c-7.13-3.741-14.568-6.821-22.258-9.217
			C298.499,120.64,301.118,113.671,303.945,106.845z M276.015,144.446c0.724,0.113,3.626,0.709,4.403,0.88
			c9.731,2.135,19.053,5.52,27.828,10.087l-17.213,17.213l-21.599-21.599L276.015,144.446z M251.854,24.417
			c0.67-2.876,2.886-3.305,4.146-3.305c1.261,0,3.477,0.43,4.147,3.306c5.731,24.573,8.637,49.952,8.637,75.434
			c0,7.399-0.248,14.848-0.74,22.257c-4.009-0.361-8.027-0.542-12.044-0.542c-4.018,0-8.034,0.181-12.044,0.54
			c-0.492-7.409-0.74-14.858-0.74-22.256C243.217,74.37,246.123,48.991,251.854,24.417z M231.583,145.326
			c0.777-0.171,3.857-0.793,4.401-0.878l6.579,6.579l-21.599,21.599l-17.212-17.212
			C212.527,150.846,221.851,147.462,231.583,145.326z M166.113,38.991c0.469-0.194,1.107-0.383,1.816-0.383
			c1.05,0,2.254,0.417,3.281,1.85c14.698,20.509,27.096,42.844,36.846,66.387c2.828,6.828,5.447,13.797,7.825,20.82
			c-7.69,2.396-15.128,5.476-22.258,9.217c-3.285-6.649-6.361-13.429-9.189-20.253c-9.752-23.543-16.78-48.102-20.888-72.997
			C163.065,40.719,164.947,39.475,166.113,38.991z M89.314,95.179c-1.559-2.509-0.296-4.379,0.595-5.271
			c0.586-0.586,1.595-1.332,2.929-1.332c0.696,0,1.481,0.203,2.34,0.738c21.426,13.323,41.427,29.213,59.447,47.233
			c5.229,5.229,10.322,10.672,15.211,16.257c-3.082,2.579-6.055,5.297-8.895,8.136c-2.841,2.841-5.559,5.813-8.138,8.895
			c-5.585-4.889-11.028-9.981-16.257-15.211C118.528,136.607,102.637,116.606,89.314,95.179z M40.458,171.209
			c-2.399-1.721-1.949-3.931-1.466-5.096c0.43-1.038,1.463-2.644,3.743-2.644c0.281,0,0.58,0.024,0.898,0.077
			c24.896,4.109,49.455,11.136,72.997,20.888c6.825,2.827,13.604,5.903,20.253,9.189c-3.741,7.13-6.821,14.568-9.218,22.258
			c-7.024-2.378-13.993-4.997-20.82-7.825C83.303,198.303,60.967,185.906,40.458,171.209z M24.418,260.147
			c-2.876-0.67-3.306-2.886-3.306-4.146s0.43-3.477,3.306-4.147c24.573-5.731,49.952-8.637,75.434-8.637
			c7.398,0,14.847,0.248,22.256,0.74c-0.721,8.019-0.721,16.069,0,24.087C89.187,270.229,56.126,267.542,24.418,260.147z
			 M43.633,348.454c-2.911,0.488-4.159-1.402-4.641-2.566s-0.933-3.376,1.467-5.096c20.509-14.698,42.844-27.096,66.387-36.846
			c6.828-2.828,13.797-5.447,20.82-7.825c2.396,7.69,5.476,15.128,9.218,22.258c-6.649,3.285-13.428,6.361-20.254,9.189
			C93.088,337.319,68.528,344.346,43.633,348.454z M154.626,375.451c-18.019,18.022-38.02,33.914-59.446,47.235
			c-2.51,1.56-4.38,0.297-5.271-0.595c-0.892-0.892-2.154-2.761-0.594-5.271c13.323-21.428,29.214-41.429,47.233-59.447
			c5.229-5.23,10.671-10.32,16.256-15.211c2.579,3.083,5.297,6.055,8.138,8.895s5.813,5.559,8.895,8.136
			C164.946,364.78,159.854,370.222,154.626,375.451z M208.056,405.155c-9.751,23.542-22.148,45.877-36.846,66.387
			c-1.722,2.399-3.932,1.949-5.096,1.467c-1.165-0.482-3.047-1.727-2.567-4.641c4.108-24.896,11.136-49.455,20.888-72.997v0.001
			c2.827-6.825,5.903-13.604,9.189-20.253c7.13,3.741,14.568,6.821,22.258,9.217C213.502,391.358,210.883,398.328,208.056,405.155z
			 M236.213,367.583c-0.008-0.002-0.016-0.003-0.024-0.004c-0.792-0.139-3.829-0.735-4.606-0.905
			c-9.668-2.122-18.932-5.48-27.657-10.003l17.038-17.038l21.599,21.599L236.213,367.583z M260.147,487.582
			c-0.67,2.877-2.886,3.306-4.147,3.306c-1.26,0-3.476-0.43-4.146-3.306c-5.731-24.573-8.637-49.952-8.637-75.434
			c0-7.398,0.248-14.847,0.74-22.256c8.019,0.721,16.069,0.721,24.087,0c0.492,7.408,0.74,14.857,0.74,22.256
			C268.784,437.63,265.878,463.009,260.147,487.582z M280.418,366.674c-0.777,0.171-3.815,0.765-4.607,0.905
			c-0.009,0.001-0.018,0.002-0.027,0.004l-6.352-6.351l21.599-21.599l17.039,17.039
			C299.348,361.195,290.085,364.552,280.418,366.674z M345.888,473.009c-1.165,0.482-3.376,0.933-5.096-1.467
			c-14.698-20.51-27.096-42.845-36.846-66.387c-2.828-6.826-5.447-13.797-7.825-20.82c7.69-2.396,15.128-5.476,22.258-9.217
			c3.285,6.649,6.361,13.428,9.189,20.254c9.752,23.543,16.779,48.103,20.887,72.997
			C348.936,471.281,347.053,472.525,345.888,473.009z M422.685,416.822c1.561,2.508,0.298,4.378-0.593,5.27
			c-0.892,0.891-2.761,2.154-5.271,0.595c-21.428-13.323-41.429-29.214-59.447-47.233c-5.229-5.229-10.32-10.671-15.211-16.257
			c3.082-2.579,6.055-5.297,8.895-8.136c2.84-2.841,5.559-5.813,8.136-8.895c5.585,4.889,11.028,9.981,16.257,15.211
			C393.472,375.395,409.363,395.396,422.685,416.822z M471.543,340.792c2.399,1.721,1.949,3.931,1.466,5.096
			c-0.482,1.165-1.726,3.054-4.641,2.566c-24.894-4.108-49.454-11.135-72.997-20.887h0.001c-6.825-2.827-13.604-5.903-20.253-9.189
			c3.741-7.13,6.821-14.568,9.217-22.258c7.024,2.378,13.993,4.997,20.82,7.825C428.699,313.697,451.035,326.094,471.543,340.792z
			 M487.583,260.147c-31.708,7.394-64.766,10.081-97.69,7.897c0.721-8.019,0.721-16.069,0-24.087
			c32.928-2.183,65.984,0.502,97.69,7.897c2.877,0.67,3.305,2.886,3.305,4.147S490.459,259.477,487.583,260.147z"/>
	</g>
</g>
</svg>