<?xml version="1.0" encoding="iso-8859-1"?>
<!-- Uploaded to: SVG Repo, www.svgrepo.com, Generator: SVG Repo Mixer Tools -->
<svg fill="#000000" height="800px" width="800px" version="1.1" id="Layer_1" xmlns="http://www.w3.org/2000/svg" xmlns:xlink="http://www.w3.org/1999/xlink" 
	 viewBox="0 0 512.002 512.002" xml:space="preserve">
<g>
	<g>
		<path d="M511.477,197.586c-1.364-4.198-5.163-7.128-9.568-7.382c-22.209-1.28-43.503-8.794-61.58-21.73
			c-31.892-22.825-75.651-20.589-106.256,4.762c14.777-36.965,3.397-79.399-28.229-102.725
			c-17.89-13.195-31.617-31.126-39.697-51.852c-1.603-4.111-5.564-6.818-9.977-6.818c-4.413,0-8.374,2.707-9.977,6.818
			c-8.08,20.724-21.804,38.652-39.69,51.846c-31.75,23.421-43.092,66.103-28.051,103.165c-30.603-25.759-74.698-28.157-106.78-5.198
			c-18.078,12.936-39.372,20.451-61.58,21.731c-4.406,0.255-8.204,3.185-9.569,7.382c-1.363,4.196-0.013,8.8,3.402,11.594
			c17.213,14.088,30.022,32.681,37.044,53.768c11.794,35.418,45.621,58.789,83.024,58.787c2.102,0,4.222-0.074,6.343-0.225
			c-33.904,21.16-49.779,62.322-37.866,99.902c6.717,21.191,7.283,43.765,1.638,65.281c-1.119,4.268,0.494,8.787,4.064,11.38
			c3.57,2.594,8.366,2.732,12.078,0.348c18.717-12.017,40.358-18.454,62.583-18.615c39.219-0.285,73.309-27.817,83.158-66.283
			c9.849,38.465,43.94,65.997,83.158,66.283c22.225,0.162,43.866,6.597,62.583,18.615c1.766,1.134,6.672,3.437,12.082-0.347
			c3.615-2.531,5.184-7.112,4.064-11.379c-5.645-21.518-5.079-44.093,1.638-65.283c11.911-37.58-3.964-78.743-37.867-99.902
			c39.856,2.822,76.922-21.148,89.38-58.562c7.022-21.087,19.831-39.68,37.044-53.768
			C511.49,206.386,512.84,201.783,511.477,197.586z M450.71,256.181c-9.775,29.354-39.88,47.674-71.573,43.563l-50.527-6.556
			c-5.071-0.706-9.944,2.283-11.604,7.146c-1.684,4.934,0.428,10.364,5.005,12.86l44.798,24.439
			c28.059,15.308,41.639,47.82,32.292,77.308c-5.634,17.775-7.609,36.374-5.898,54.764c-16.959-7.309-35.252-11.177-53.896-11.313
			c-30.93-0.225-57.649-23.179-63.542-54.581l-9.082-50.125c-0.922-5.082-5.34-8.784-10.505-8.799c-0.011,0-0.021,0-0.032,0
			c-5.152,0-9.576,3.67-10.525,8.737l-9.393,50.159c-5.884,31.418-32.61,54.384-63.548,54.609
			c-18.643,0.136-36.937,4.004-53.896,11.313c1.711-18.39-0.263-36.988-5.898-54.764c-9.348-29.488,4.233-62.001,32.292-77.309
			l44.796-24.436c4.524-2.468,6.648-7.808,5.055-12.709c-1.448-4.456-5.594-7.399-10.176-7.399c-0.458,0-0.921,0.031-1.386,0.088
			l-50.606,6.567c-31.693,4.117-61.798-14.208-71.573-43.563c-5.89-17.689-15.222-33.892-27.415-47.762
			c18.02-4.055,35.098-11.68,50.263-22.533c25.156-18.001,60.273-15.134,83.508,6.827l37.121,35.035
			c3.746,3.535,9.479,3.902,13.647,0.873c4.166-3.03,5.584-8.597,3.375-13.252l-21.884-46.101
			c-13.706-28.876-5.584-63.166,19.314-81.533c15.003-11.068,27.529-24.95,36.953-40.832c9.426,15.884,21.955,29.77,36.961,40.84
			c24.895,18.363,33.019,52.647,19.316,81.524l-21.877,46.103c-2.213,4.663-0.784,10.242,3.398,13.267
			c4.182,3.025,9.927,2.637,13.663-0.924l36.731-35.004c23.227-21.954,58.345-24.823,83.502-6.822
			c15.164,10.852,32.243,18.477,50.263,22.532C465.932,222.289,456.6,238.491,450.71,256.181z"/>
	</g>
</g>
<g>
	<g>
		<path d="M255.999,226.86c-28.511,0-51.705,23.194-51.705,51.704c0,28.51,23.195,51.704,51.705,51.704s51.705-23.194,51.705-51.704
			C307.704,250.055,284.509,226.86,255.999,226.86z M255.999,308.853c-16.702,0-30.289-13.587-30.289-30.288
			s13.588-30.288,30.289-30.288s30.289,13.587,30.289,30.288S272.701,308.853,255.999,308.853z"/>
	</g>
</g>
</svg>