<?xml version="1.0" encoding="iso-8859-1"?>
<!-- Uploaded to: SVG Repo, www.svgrepo.com, Generator: SVG Repo Mixer Tools -->
<svg fill="#000000" height="800px" width="800px" version="1.1" id="Layer_1" xmlns="http://www.w3.org/2000/svg" xmlns:xlink="http://www.w3.org/1999/xlink" 
	 viewBox="0 0 512 512" xml:space="preserve">
<g>
	<g>
		<circle cx="260.135" cy="236.932" r="9.533"/>
	</g>
</g>
<g>
	<g>
		<circle cx="232.819" cy="256" r="9.533"/>
	</g>
</g>
<g>
	<g>
		<circle cx="249.23" cy="276.141" r="9.532"/>
	</g>
</g>
<g>
	<g>
		<circle cx="275.705" cy="265.534" r="9.533"/>
	</g>
</g>
<g>
	<g>
		<path d="M512,256c0-12.574-10.5-22.831-31.209-30.488c-8.753-3.236-19.325-5.955-31.055-8.049
			c10.034-6.422,18.762-12.981,25.611-19.321c16.201-14.997,21.978-28.492,17.167-40.119c-4.816-11.61-18.437-17.062-40.498-16.212
			c-9.326,0.36-20.136,1.895-31.776,4.449c6.814-9.776,12.367-19.176,16.268-27.653c9.229-20.055,9.4-34.733,0.508-43.624
			c-8.891-8.891-23.568-8.72-43.624,0.508c-8.476,3.901-17.876,9.454-27.653,16.268c2.554-11.64,4.089-22.451,4.448-31.776
			c0.851-22.056-4.603-35.682-16.221-40.501c-11.618-4.806-25.113,0.97-40.11,17.172c-6.34,6.849-12.899,15.577-19.321,25.61
			c-2.094-11.729-4.814-22.302-8.049-31.054C278.831,10.5,268.574,0,256,0s-22.831,10.5-30.488,31.209
			c-3.236,8.753-5.955,19.325-8.049,31.055c-6.422-10.033-12.981-18.762-19.321-25.61c-14.997-16.2-28.492-21.977-40.119-17.167
			c-11.61,4.816-17.064,18.442-16.212,40.498c0.36,9.326,1.895,20.136,4.449,31.776c-9.776-6.814-19.176-12.367-27.653-16.268
			c-20.055-9.228-34.731-9.399-43.624-0.508c-8.891,8.891-8.72,23.569,0.509,43.624c3.901,8.476,9.454,17.876,16.268,27.653
			c-11.64-2.554-22.451-4.089-31.776-4.449c-22.064-0.847-35.682,4.603-40.501,16.221c-4.806,11.618,0.97,25.112,17.172,40.11
			c6.849,6.34,15.577,12.899,25.61,19.321c-11.729,2.094-22.302,4.814-31.054,8.049C10.5,233.169,0,243.426,0,256
			s10.5,22.831,31.209,30.488c8.753,3.236,19.325,5.955,31.055,8.049c-10.033,6.422-18.762,12.981-25.61,19.321
			c-16.201,14.997-21.978,28.492-17.167,40.119c4.491,10.825,16.639,16.299,36.14,16.299c1.414,0,19.953-0.483,36.133-4.535
			c-6.814,9.776-12.367,19.176-16.268,27.652c-9.229,20.055-9.635,34.974-0.508,43.624c12.686,12.025,33.409,4.192,43.624-0.508
			c8.476-3.901,17.876-9.454,27.653-16.268c-2.554,11.64-4.089,22.451-4.449,31.776c-0.851,22.057,4.603,35.682,16.221,40.502
			c2.642,1.094,18.12,7.142,40.11-17.172c6.26-6.922,12.899-15.577,19.321-25.61c2.094,11.729,4.814,22.302,8.049,31.054
			C233.17,501.5,243.427,512,256.001,512s22.831-10.5,30.488-31.209c3.236-8.753,5.955-19.325,8.049-31.055
			c6.422,10.034,13.036,18.711,19.321,25.611c22.388,24.579,37.473,18.262,40.119,17.167c11.61-4.816,17.064-18.442,16.212-40.498
			c-0.36-9.326-1.894-20.136-4.448-31.776c9.776,6.814,19.159,12.407,27.653,16.268c28.059,12.754,39.262,4.87,43.624,0.508
			c8.891-8.891,8.72-23.569-0.508-43.624c-3.901-8.476-9.454-17.876-16.268-27.652c22.357,4.85,34.718,4.535,36.133,4.535
			c19.5,0,31.651-5.475,36.145-16.307c4.806-11.618-0.97-25.112-17.172-40.11c-6.849-6.34-15.577-12.899-25.61-19.321
			c11.729-2.094,22.302-4.814,31.054-8.049C501.499,278.831,512,268.574,512,256z M450.512,163.168
			c16.961-1.024,21.651,2.411,22.329,3.012c-0.053,0.906-0.937,6.655-13.655,17.92c-11.339,10.045-28.252,20.875-47.633,30.499
			c-6.966,3.467-14.295,6.797-21.789,9.898c-27.558,11.414-55.487,18.869-76.02,20.405c-1.531-7.98-4.669-15.394-9.08-21.882
			c15.628-13.448,40.65-27.919,68.19-39.327c7.586-3.14,22.652-8.489,22.773-8.535C416.003,168.335,435.483,164.08,450.512,163.168z
			 M355.9,126.294c15.61-13.368,31.255-24.155,44.278-30.497c15.302-7.454,20.943-6.05,21.781-5.756
			c0.293,0.839,1.696,6.478-5.756,21.781c-6.342,13.022-17.13,28.668-30.497,44.278c-6.868,2.367-13.905,5.025-20.983,7.953
			c-11.126,4.609-21.784,9.636-31.683,14.906c5.271-9.899,10.298-20.558,14.908-31.685
			C350.875,140.199,353.533,133.162,355.9,126.294z M287.501,122.233c3.1-7.491,6.43-14.82,9.903-21.795
			c9.622-19.373,20.452-36.286,30.496-47.625c11.265-12.717,17.014-13.6,17.92-13.655c0.603,0.679,4.039,5.373,3.011,22.329
			c-0.911,15.029-5.168,34.507-11.989,54.882c-0.046,0.122-5.397,15.189-8.535,22.773c-11.404,27.534-25.87,52.55-39.329,68.193
			c-6.488-4.41-13.901-7.548-21.88-9.079C268.639,177.695,276.091,149.779,287.501,122.233z M293.552,255.999
			c0,20.707-16.846,37.552-37.552,37.552s-37.552-16.845-37.552-37.552s16.845-37.552,37.552-37.552
			S293.552,235.292,293.552,255.999z M244.667,40.774c5.549-16.09,10.53-19.091,11.333-19.479
			c0.804,0.388,5.783,3.389,11.333,19.479c4.723,13.695,8.156,32.383,9.74,52.867c-3.216,6.601-6.313,13.46-9.211,20.46
			c-4.616,11.145-8.587,22.246-11.863,32.99c-3.276-10.742-7.246-21.843-11.862-32.987c-2.898-7.004-5.998-13.865-9.212-20.462
			C236.51,73.158,239.943,54.469,244.667,40.774z M166.18,39.159c0.907,0.053,6.656,0.939,17.92,13.655
			c10.045,11.339,20.875,28.252,30.499,47.633c3.467,6.966,6.797,14.295,9.898,21.79c11.414,27.558,18.869,55.487,20.405,76.02
			c-7.98,1.531-15.394,4.669-21.882,9.08c-13.448-15.628-27.919-40.65-39.327-68.19c-3.14-7.586-8.489-22.652-8.535-22.773
			c-6.823-20.376-11.078-39.856-11.99-54.885C162.141,44.533,165.577,39.839,166.18,39.159z M90.041,90.041
			c0.841-0.292,6.478-1.696,21.781,5.756c13.022,6.342,28.668,17.13,44.278,30.497c2.367,6.868,5.025,13.905,7.953,20.983
			c4.609,11.126,9.636,21.784,14.906,31.683c-9.899-5.271-20.558-10.298-31.685-14.908c-7.074-2.927-14.112-5.585-20.98-7.952
			c-13.367-15.61-24.155-31.255-30.497-44.278C88.345,96.519,89.748,90.88,90.041,90.041z M52.813,184.101
			c-12.717-11.266-13.6-17.015-13.655-17.921c0.679-0.602,5.375-4.038,22.329-3.011c15.029,0.911,34.507,5.168,54.882,11.989
			c0.122,0.046,15.19,5.397,22.773,8.535c27.534,11.404,52.55,25.87,68.193,39.329c-4.41,6.488-7.548,13.901-9.079,21.88
			c-20.561-1.541-48.477-8.994-76.023-20.404c-7.491-3.101-14.82-6.43-21.795-9.903C81.065,204.975,64.152,194.146,52.813,184.101z
			 M40.776,267.332c-16.09-5.549-19.092-10.529-19.48-11.332c0.388-0.804,3.389-5.783,19.479-11.333
			c13.695-4.723,32.383-8.156,52.867-9.74c6.601,3.216,13.46,6.313,20.46,9.211c11.145,4.616,22.246,8.587,32.99,11.863
			c-10.742,3.276-21.843,7.245-32.987,11.862c-7.004,2.898-13.865,5.998-20.462,9.211C73.159,275.489,54.47,272.056,40.776,267.332z
			 M61.488,348.832c-16.959,1.027-21.65-2.409-22.33-3.012c0.053-0.906,0.937-6.655,13.655-17.92
			c11.339-10.045,28.252-20.875,47.633-30.499c6.966-3.467,14.295-6.797,21.79-9.898c27.558-11.415,55.487-18.869,76.02-20.405
			c1.531,7.98,4.669,15.394,9.08,21.882c-15.628,13.448-40.65,27.919-68.19,39.327c-7.586,3.14-22.652,8.489-22.773,8.535
			C95.997,343.665,76.517,347.92,61.488,348.832z M156.1,385.706c-15.61,13.366-31.255,24.154-44.278,30.497
			c-15.303,7.452-20.944,6.048-21.781,5.756c-0.293-0.839-1.696-6.478,5.756-21.781c6.342-13.022,17.13-28.668,30.497-44.278
			c6.868-2.367,13.905-5.025,20.983-7.953c11.126-4.609,21.784-9.636,31.683-14.906c-5.271,9.899-10.298,20.558-14.908,31.685
			C161.125,371.801,158.467,378.838,156.1,385.706z M224.498,389.767c-3.101,7.491-6.43,14.82-9.903,21.795
			c-9.621,19.373-20.45,36.286-30.495,47.625c-11.265,12.717-17.014,13.6-17.92,13.655c-0.603-0.679-4.039-5.373-3.011-22.328
			c0.911-15.029,5.168-34.507,11.989-54.882c0.046-0.122,5.397-15.189,8.535-22.773c11.404-27.534,25.87-52.55,39.329-68.193
			c6.488,4.41,13.901,7.548,21.88,9.079C243.361,334.305,235.908,362.221,224.498,389.767z M267.333,471.226
			c-5.549,16.09-10.53,19.091-11.333,19.479c-0.804-0.388-5.783-3.389-11.333-19.479c-4.723-13.695-8.156-32.383-9.74-52.867
			c3.216-6.601,6.313-13.46,9.211-20.46c4.616-11.145,8.587-22.246,11.863-32.99c3.276,10.742,7.245,21.843,11.862,32.987
			c2.898,7.004,5.998,13.865,9.212,20.462C275.49,438.842,272.057,457.531,267.333,471.226z M345.82,472.84
			c-0.907-0.053-6.656-0.939-17.92-13.655c-10.045-11.339-20.875-28.252-30.499-47.633c-3.467-6.966-6.797-14.295-9.898-21.789
			c-11.415-27.558-18.869-55.487-20.405-76.02c7.98-1.531,15.394-4.669,21.882-9.08c13.448,15.628,27.919,40.65,39.327,68.19
			c3.14,7.586,5.967,15.125,8.404,22.406c0.041,0.123,0.085,0.245,0.131,0.368c6.822,20.376,11.078,39.856,11.99,54.885
			C349.859,467.467,346.423,472.161,345.82,472.84z M421.959,421.959c-0.84,0.293-6.477,1.696-21.781-5.756
			c-13.022-6.342-28.668-17.13-44.278-30.497c-2.367-6.868-5.025-13.905-7.953-20.983c-4.609-11.126-9.636-21.784-14.906-31.683
			c9.899,5.271,20.558,10.298,31.685,14.908c7.074,2.927,14.112,5.585,20.98,7.952c13.366,15.61,24.154,31.255,30.497,44.278
			C423.655,415.481,422.252,421.12,421.959,421.959z M459.186,327.899c12.718,11.266,13.601,17.015,13.655,17.921
			c-0.679,0.603-5.372,4.042-22.329,3.011c-15.029-0.911-34.507-5.168-54.882-11.989c-0.122-0.046-15.19-5.397-22.773-8.535
			c-27.534-11.404-52.55-25.87-68.193-39.329c4.41-6.488,7.548-13.901,9.079-21.88c20.561,1.541,48.477,8.994,76.023,20.404
			c7.491,3.1,14.82,6.43,21.795,9.903C430.934,307.025,447.847,317.854,459.186,327.899z M418.358,277.073
			c-6.601-3.216-13.46-6.313-20.46-9.211c-11.145-4.616-22.246-8.587-32.99-11.863c10.742-3.276,21.843-7.245,32.987-11.861
			c7.004-2.898,13.865-5.998,20.462-9.211c20.483,1.584,39.172,5.017,52.867,9.74c16.09,5.549,19.091,10.53,19.479,11.333
			c-0.388,0.803-3.389,5.783-19.479,11.333C457.53,272.057,438.842,275.49,418.358,277.073z"/>
	</g>
</g>
</svg>