<?xml version="1.0" encoding="iso-8859-1"?>
<!-- Uploaded to: SVG Repo, www.svgrepo.com, Generator: SVG Repo Mixer Tools -->
<svg fill="#000000" height="800px" width="800px" version="1.1" id="Layer_1" xmlns="http://www.w3.org/2000/svg" xmlns:xlink="http://www.w3.org/1999/xlink" 
	 viewBox="0 0 512 512" xml:space="preserve">
<g>
	<g>
		<path d="M138.391,176.914l-16.163-9.35c-4.643-2.688-10.592-1.101-13.28,3.541c-2.678,4.643-1.101,10.592,3.552,13.28l16.163,9.35
			c4.643,2.688,10.581,1.101,13.269-3.541S143.034,179.602,138.391,176.914z"/>
	</g>
</g>
<g>
	<g>
		<g>
			<path d="M416.03,255.999c39.16-28.331,62.945-74.217,62.977-123.137c0-3.477-1.857-6.683-4.859-8.422
				c-42.377-24.433-94.018-26.776-138.134-7.039c-4.945-48.067-32.79-91.61-75.145-116.097c-3.012-1.738-6.726-1.738-9.728,0
				c-42.356,24.487-70.2,68.03-75.156,116.108c-44.115-19.747-95.756-17.404-138.134,7.029c-3.001,1.738-4.859,4.956-4.859,8.432
				c0.032,48.909,23.818,94.795,62.967,123.126c-39.149,28.331-62.934,74.217-62.967,123.137c0,3.477,1.857,6.683,4.869,8.421
				c23.44,13.518,49.708,20.276,75.977,20.276c21.226,0,42.431-4.416,62.146-13.237c4.956,48.067,32.801,91.621,75.156,116.097
				c1.501,0.875,3.185,1.306,4.859,1.306c1.684,0,3.358-0.432,4.869-1.306c42.345-24.476,70.19-68.019,75.145-116.097
				c19.715,8.821,40.92,13.248,62.146,13.237c26.258,0,52.537-6.759,75.977-20.265c3.012-1.738,4.869-4.956,4.869-8.432
				C478.975,330.217,455.189,284.331,416.03,255.999z M336.706,138.65c38.296-20.039,84.366-20.082,122.737-0.108
				c-1.889,43.219-24.962,83.103-61.466,106.24c-22.101-11.639-46.469-17.469-70.859-17.469c-8.357,0-16.724,0.691-24.984,2.062
				C322.972,204.003,335.41,172.173,336.706,138.65z M278.36,255.999c31.278-12.319,66.26-12.319,97.505,0
				C344.631,268.329,309.638,268.329,278.36,255.999z M315.933,359.811c-26.29-20.892-43.792-51.198-48.758-84.452
				C293.497,296.283,310.988,326.588,315.933,359.811z M267.175,236.641c4.966-33.254,22.457-63.56,48.758-84.452
				C310.988,185.41,293.497,215.716,267.175,236.641z M256,21.083c36.482,23.245,59.49,63.161,61.272,106.348
				c-28.385,17.879-49.719,44.558-61.272,75.297c-11.552-30.738-32.887-57.417-61.272-75.286
				C196.51,84.255,219.518,44.329,256,21.083z M244.826,275.357c-4.967,33.254-22.468,63.56-48.758,84.452
				C201.012,326.599,218.503,296.283,244.826,275.357z M136.124,256.01c31.246-12.341,66.249-12.341,97.527-0.011
				C202.362,268.34,167.348,268.34,136.124,256.01z M196.068,152.199c26.29,20.881,43.792,51.187,48.758,84.441
				C218.514,215.716,201.012,185.41,196.068,152.199z M52.557,138.542c38.372-19.963,84.441-19.931,122.737,0.119
				c1.296,33.513,13.733,65.342,34.571,90.703c-32.379-5.355-66.173-0.216-95.843,15.418
				C77.519,221.644,54.447,181.762,52.557,138.542z M175.295,373.349c-38.285,20.039-84.366,20.082-122.737,0.108
				c1.889-43.219,24.962-83.103,61.466-106.229c29.669,15.634,63.442,20.773,95.843,15.407
				C189.028,308.007,176.59,339.837,175.295,373.349z M256,490.916c-36.482-23.245-59.479-63.161-61.272-106.348
				c28.385-17.879,49.719-44.569,61.272-75.297c11.552,30.738,32.887,57.417,61.272,75.297
				C315.479,427.755,292.482,467.67,256,490.916z M336.706,373.349c-1.285-33.513-13.723-65.342-34.571-90.714
				c32.39,5.366,66.173,0.227,95.843-15.407c36.504,23.127,59.576,63.01,61.466,106.24
				C421.072,393.431,374.991,393.398,336.706,373.349z"/>
			<path d="M369.809,190.194c2.688,4.643,8.627,6.23,13.28,3.541l16.163-9.35c3.192-1.848,4.939-5.238,4.846-8.684
				c-0.042-1.567-0.465-3.146-1.305-4.597c-2.688-4.643-8.637-6.23-13.28-3.541l-16.163,9.35c-3.192,1.848-4.939,5.238-4.846,8.684
				C368.546,187.164,368.968,188.743,369.809,190.194z"/>
			<path d="M128.663,318.351l-16.163,9.35c-4.653,2.688-6.23,8.627-3.552,13.28c2.688,4.643,8.637,6.23,13.28,3.541l16.163-9.35
				c4.643-2.688,6.23-8.637,3.541-13.28C139.244,317.249,133.306,315.662,128.663,318.351z"/>
			<path d="M256.076,387.59c-5.377,0-9.717,4.351-9.717,9.717v18.668c0,5.366,4.34,9.717,9.717,9.717
				c5.366,0,9.717-4.351,9.717-9.717v-18.668C265.793,391.941,261.442,387.59,256.076,387.59z"/>
			<path d="M399.251,327.7l-16.163-9.35c-4.653-2.688-10.592-1.101-13.28,3.541c-2.688,4.643-1.101,10.592,3.541,13.28l16.163,9.35
				c4.643,2.688,10.592,1.101,13.28-3.541C405.481,336.328,403.894,330.39,399.251,327.7z"/>
			<path d="M256.076,124.496c5.366,0,9.717-4.351,9.717-9.717v-0.001V96.111V96.11c0-5.377-4.351-9.717-9.717-9.717
				c-5.377,0-9.717,4.34-9.717,9.717v0.001v18.667v0.001C246.359,120.143,250.699,124.496,256.076,124.496z"/>
		</g>
	</g>
</g>
<g id="SVGCleanerId_0">
	<g>
		<path d="M402.793,171.104c-2.688-4.643-8.637-6.23-13.28-3.541l-16.163,9.35c-4.643,2.688-6.23,8.637-3.541,13.28
			c2.688,4.643,8.627,6.23,13.28,3.541l16.163-9.35C403.894,181.696,405.481,175.747,402.793,171.104z"/>
	</g>
</g>
<g id="SVGCleanerId_1">
	<g>
		<path d="M256.076,86.393c-5.377,0-9.717,4.34-9.717,9.717v18.668c0,5.366,4.34,9.717,9.717,9.717c5.366,0,9.717-4.351,9.717-9.717
			V96.11C265.793,90.733,261.442,86.393,256.076,86.393z"/>
	</g>
</g>
<g id="SVGCleanerId_2">
	<g>
		<path d="M138.391,176.914l-16.163-9.35c-4.643-2.688-10.592-1.101-13.28,3.541c-2.678,4.643-1.101,10.592,3.552,13.28l16.163,9.35
			c4.643,2.688,10.581,1.101,13.269-3.541C144.621,185.55,143.034,179.602,138.391,176.914z"/>
	</g>
</g>
<g id="SVGCleanerId_3">
	<g>
		<path d="M141.933,321.893c-2.688-4.643-8.627-6.23-13.269-3.541l-16.163,9.35c-4.653,2.688-6.23,8.627-3.552,13.28
			c2.688,4.643,8.637,6.23,13.28,3.541l16.163-9.35C143.034,332.484,144.621,326.535,141.933,321.893z"/>
	</g>
</g>
<g id="SVGCleanerId_4">
	<g>
		<path d="M256.076,387.59c-5.377,0-9.717,4.351-9.717,9.717v18.668c0,5.366,4.34,9.717,9.717,9.717
			c5.366,0,9.717-4.351,9.717-9.717v-18.668C265.793,391.941,261.442,387.59,256.076,387.59z"/>
	</g>
</g>
<g id="SVGCleanerId_5">
	<g>
		<path d="M399.251,327.701l-16.163-9.35c-4.653-2.688-10.592-1.101-13.28,3.541c-2.688,4.643-1.101,10.592,3.541,13.28l16.163,9.35
			c4.643,2.688,10.592,1.101,13.28-3.541C405.481,336.328,403.894,330.39,399.251,327.701z"/>
	</g>
</g>
<g>
	<g>
		<path d="M256.076,86.393c-5.377,0-9.717,4.34-9.717,9.717v18.668c0,5.366,4.34,9.717,9.717,9.717c5.366,0,9.717-4.351,9.717-9.717
			V96.11C265.793,90.733,261.442,86.393,256.076,86.393z"/>
	</g>
</g>
<g>
	<g>
		<path d="M256.076,387.59c-5.377,0-9.717,4.351-9.717,9.717v18.668c0,5.366,4.34,9.717,9.717,9.717
			c5.366,0,9.717-4.351,9.717-9.717v-18.668C265.793,391.941,261.442,387.59,256.076,387.59z"/>
	</g>
</g>
<g>
	<g>
		<path d="M399.251,327.701l-16.163-9.35c-4.653-2.688-10.592-1.101-13.28,3.541c-2.688,4.643-1.101,10.592,3.541,13.28l16.163,9.35
			c4.643,2.688,10.592,1.101,13.28-3.541C405.481,336.328,403.894,330.39,399.251,327.701z"/>
	</g>
</g>
<g>
	<g>
		<path d="M141.933,321.893c-2.688-4.643-8.627-6.23-13.269-3.541l-16.163,9.35c-4.653,2.688-6.23,8.627-3.552,13.28
			c2.688,4.643,8.637,6.23,13.28,3.541l16.163-9.35C143.034,332.484,144.621,326.535,141.933,321.893z"/>
	</g>
</g>
<g>
	<g>
		<path d="M402.793,171.104c-2.688-4.643-8.637-6.23-13.28-3.541l-16.163,9.35c-4.643,2.688-6.23,8.637-3.541,13.28
			c2.688,4.643,8.627,6.23,13.28,3.541l16.163-9.35C403.894,181.696,405.481,175.747,402.793,171.104z"/>
	</g>
</g>
<g>
	<g>
		<path d="M138.391,176.914l-16.163-9.35c-4.643-2.688-10.592-1.101-13.28,3.541c-2.678,4.643-1.101,10.592,3.552,13.28l16.163,9.35
			c4.643,2.688,10.581,1.101,13.269-3.541C144.621,185.55,143.034,179.602,138.391,176.914z"/>
	</g>
</g>
</svg>