<?xml version="1.0" encoding="iso-8859-1"?>
<!-- Uploaded to: SVG Repo, www.svgrepo.com, Generator: SVG Repo Mixer Tools -->
<svg fill="#000000" height="800px" width="800px" version="1.1" id="Layer_1" xmlns="http://www.w3.org/2000/svg" xmlns:xlink="http://www.w3.org/1999/xlink" 
	 viewBox="0 0 496 496" xml:space="preserve">
<g>
	<g>
		<path d="M496,248c0-25.104-14.56-46.816-35.656-57.296c13.368-19.984,14.544-45.728,2.248-67.016
			c-12.256-21.216-34.912-33.072-58.744-31.704C405.024,68.736,393.504,45.64,372,33.232c-21.744-12.552-47.824-10.792-67.44,2.224
			C293.928,13.888,272.224,0,247.64,0c-24.504,0-46.112,13.712-56.832,35.024c-19.544-12.64-45.304-14.208-66.808-1.792
			c-21.736,12.552-33.264,36.016-31.792,59.52c-24-1.584-46.872,10.272-59.16,31.568c-12.256,21.224-11.184,46.8,1.912,66.728
			C14.24,201.648,0,223.168,0,248c0,25.104,14.56,46.816,35.656,57.296c-13.368,19.984-14.544,45.728-2.248,67.016
			c11.616,20.12,32.592,31.88,55.032,31.88c1.232,0,2.48-0.144,3.712-0.216C90.968,427.24,102.48,450.352,124,462.768
			c10.056,5.808,21.04,8.56,31.888,8.56c12.608,0,24.968-3.84,35.52-10.84C202.032,482.088,223.752,496,248.36,496
			c24.528,0,46.16-13.744,56.872-35.088c10.408,6.728,22.52,10.424,34.88,10.424c10.848,0,21.832-2.76,31.888-8.56
			c21.768-12.56,33.288-36.072,31.784-59.6c1.424,0.096,2.856,0.248,4.264,0.248c22.408,0,43.336-11.704,54.896-31.736
			c12.256-21.224,11.184-46.8-1.912-66.728C481.76,294.352,496,272.832,496,248z M400.856,108.432
			c19.168-2.648,38.04,6.224,47.88,23.256c9.912,17.168,7.984,38.168-4.352,53.536C440.376,184.44,436.24,184,432,184h-20.096
			c-6.536-16.68-15.528-32.12-26.56-45.872l10.088-17.48C397.712,116.696,399.504,112.608,400.856,108.432z M299.312,208
			L328,179.312L356.688,208L328,236.688L299.312,208z M316.688,248L288,276.688L259.312,248L288,219.312L316.688,248z M288,196.688
			L259.312,168L288,139.312L316.688,168L288,196.688z M276.688,208L248,236.688L219.312,208L248,179.312L276.688,208z M236.688,248
			L208,276.688L179.312,248L208,219.312L236.688,248z M208,196.688L179.312,168L208,139.312L236.688,168L208,196.688z M196.688,208
			L168,236.688L139.312,208L168,179.312L196.688,208z M156.688,248L128,276.688L99.312,248L128,219.312L156.688,248z M168,259.312
			L196.688,288L168,316.688L139.312,288L168,259.312z M208,299.312L236.688,328L208,356.688L179.312,328L208,299.312z M219.312,288
			L248,259.312L276.688,288L248,316.688L219.312,288z M288,299.312L316.688,328L288,356.688L259.312,328L288,299.312z M299.312,288
			L328,259.312L356.688,288L328,316.688L299.312,288z M339.312,248L368,219.312L396.688,248L368,276.688L339.312,248z M339.312,168
			l27.16-27.16c9.224,10.184,17.184,21.504,23.568,33.808L368,196.688L339.312,168z M328,156.688L299.312,128l22.04-22.04
			c12.304,6.384,23.624,14.344,33.808,23.568L328,156.688z M288,116.688l-28.08-28.08c16.048,1.184,31.424,4.744,45.816,10.344
			L288,116.688z M276.688,128L248,156.688L219.312,128L248,99.312L276.688,128z M208,116.688l-17.736-17.736
			c14.392-5.6,29.768-9.16,45.816-10.352L208,116.688z M196.688,128L168,156.688l-27.16-27.16
			c10.192-9.224,21.504-17.184,33.808-23.568L196.688,128z M156.688,168L128,196.688l-22.04-22.04
			c6.384-12.304,14.344-23.616,23.568-33.808L156.688,168z M116.688,208l-28.08,28.08c1.184-16.048,4.744-31.424,10.344-45.816
			L116.688,208z M116.688,288l-17.736,17.736c-5.6-14.4-9.152-29.768-10.344-45.824L116.688,288z M128,299.312L156.688,328
			l-27.16,27.16c-9.224-10.184-17.184-21.504-23.568-33.808L128,299.312z M168,339.312L196.688,368l-22.04,22.04
			c-12.304-6.384-23.624-14.344-33.808-23.568L168,339.312z M208,379.312l28.08,28.08c-16.048-1.184-31.424-4.744-45.816-10.344
			L208,379.312z M219.312,368L248,339.312L276.688,368L248,396.688L219.312,368z M288,379.32l17.736,17.736
			c-14.392,5.592-29.768,9.152-45.816,10.344L288,379.32z M299.312,368L328,339.312l27.16,27.16
			c-10.192,9.224-21.504,17.184-33.808,23.568L299.312,368z M339.312,328L368,299.312l22.04,22.04
			c-6.384,12.304-14.344,23.616-23.568,33.808L339.312,328z M379.312,288l28.08-28.08c-1.184,16.048-4.744,31.424-10.344,45.816
			L379.312,288z M379.312,208l17.736-17.736c5.6,14.4,9.152,29.768,10.344,45.824L379.312,208z M298.432,64.648
			c13.232-22.92,42.648-30.816,65.568-17.56c22.92,13.232,30.808,42.64,17.568,65.56l-7.4,12.824
			c-22.384-23.04-50.976-40.008-83.072-48.112L298.432,64.648z M247.64,16c19.824,0,37.04,12.168,44.184,30.544
			c-2.688,3.08-5.136,6.44-7.256,10.104L274.552,74c-8.664-1.312-17.528-2-26.552-2s-17.888,0.688-26.552,2.008l-10.016-17.352
			c-2.28-3.952-4.936-7.552-7.872-10.816C210.872,27.856,227.968,16,247.64,16z M132,47.088c22.904-13.248,52.336-5.36,65.568,17.56
			l7.336,12.712c-32.096,8.112-60.696,25.072-83.072,48.112l-7.4-12.824C101.192,89.728,109.08,60.32,132,47.088z M46.904,132.312
			c9.904-17.16,29.064-26.016,48.536-23c1.32,3.864,3.008,7.664,5.128,11.336l10.088,17.48c-11.032,13.76-20.024,29.2-26.56,45.872
			H64c-4.56,0-9.008,0.496-13.296,1.408C38.784,170.088,37.064,149.352,46.904,132.312z M16,248c0-26.472,21.528-48,48-48h14.712
			C74.368,215.272,72,231.36,72,248s2.368,32.728,6.712,48H64C37.528,296,16,274.472,16,248z M95.144,387.568
			c-19.176,2.64-38.04-6.224-47.88-23.256c-9.912-17.168-7.984-38.168,4.352-53.536C55.624,311.56,59.76,312,64,312h20.096
			c6.536,16.68,15.528,32.12,26.56,45.872l-10.088,17.48C98.288,379.296,96.504,383.392,95.144,387.568z M197.568,431.352
			c-13.232,22.928-42.664,30.808-65.568,17.56c-22.92-13.232-30.808-42.64-17.568-65.56l7.4-12.824
			c22.384,23.04,50.976,40.008,83.072,48.112L197.568,431.352z M248.36,480c-19.864,0-37.112-12.216-44.232-30.664
			c2.68-3.064,5.192-6.328,7.304-9.984L221.448,422c8.664,1.312,17.528,2,26.552,2s17.888-0.688,26.552-2.008l10.016,17.352
			c2.272,3.936,5,7.432,7.92,10.68C285.208,468.088,268.08,480,248.36,480z M364,448.912c-22.92,13.24-52.336,5.368-65.568-17.56
			l-7.336-12.712c32.096-8.112,60.696-25.072,83.072-48.112l7.4,12.824C394.808,406.272,386.92,435.68,364,448.912z
			 M449.096,363.688c-9.904,17.168-29.048,26.032-48.536,23c-1.32-3.864-3.008-7.664-5.128-11.336l-10.088-17.48
			c11.032-13.76,20.024-29.2,26.56-45.872H432c4.56,0,9.008-0.496,13.296-1.408C457.216,325.912,458.936,346.648,449.096,363.688z
			 M432,296h-14.712c4.344-15.272,6.712-31.36,6.712-48s-2.368-32.728-6.712-48H432c26.472,0,48,21.528,48,48S458.472,296,432,296z"
			/>
	</g>
</g>
</svg>