<?xml version='1.0' encoding='iso-8859-1'?>
<!-- Uploaded to: SVG Repo, www.svgrepo.com, Generator: SVG Repo Mixer Tools -->
<svg fill="#000000" height="800px" width="800px" version="1.1" xmlns="http://www.w3.org/2000/svg" viewBox="0 0 463.056 463.056" xmlns:xlink="http://www.w3.org/1999/xlink" enable-background="new 0 0 463.056 463.056">
  <path d="m456.15,160.198c-16.57-10.042-31.22-35.763-40.914-52.784-2.814-4.942-5.246-9.211-7.325-12.41-7.871-12.109-15.883-21.966-23.999-29.541 0.57-3.513 1.207-11.727-2.769-21.542-8.022-19.806-28.647-30.672-44.537-36.3-17.477-6.19-40.387-7.421-62.853-3.378-21.041,3.786-37.367,11.332-45.436,20.898-31.273-8.553-67.957-20.465-68.465-20.63-1.937-0.63-4.047-0.436-5.844,0.52-1.798,0.955-3.133,2.61-3.693,4.567-0.041,0.145-4.271,14.576-15.432,24.912-4.544,4.209-8.666,8.355-12.406,12.432-8.132-4.281-20.975-5.659-35.532-3.478-11.513,1.725-28.75,6.457-45.484,19.203-16.47,12.543-28.319,29.701-35.216,50.993-13.86,42.785-2.055,81.815 10.289,107.022 4.897,9.999 10.567,19.168 16.343,27.043-0.382,0.44-0.725,0.926-1.005,1.467-12.845,24.804-12.858,57.573-0.038,92.271 15.934,43.127 48.087,80.798 80.009,93.74 8.637,3.501 17.078,5.251 25.273,5.251 8.813,0 17.343-2.025 25.519-6.072 5.185-2.566 9.88-5.795 14.109-9.404 31.676,33.559 116.266,36.176 141.852,36.176 4.076,0 6.656-0.066 7.285-0.085 2.927-0.085 5.542-1.879 6.688-4.573 0.094-0.222 8.426-19.432 34.447-54.552 4.524,0.658 9.007,0.988 13.418,0.988 18.094,0 34.978-5.477 48.56-15.928 17.238-13.267 27.862-33.735 30.723-59.194 3.366-29.965-12.867-56.366-17.244-62.858 10.467-23.147 16.994-49.292 19.448-68.87 3.342-26.679-1.329-33.191-5.771-35.884zm-179.74-141.193c19.685-3.542 40.315-2.513 55.188,2.755 27.019,9.569 34.953,23.184 37.064,32.228-6.849-3.933-13.753-6.278-20.69-7.005-16.435-1.72-28.2,6.046-33.956,11.083-12.375-12.505-30.901-21.193-54.55-25.438-3.889-0.698-8.509-1.71-13.588-2.935 7.111-4.537 18.04-8.44 30.532-10.688zm71.662,219.412c-7.295-12.157-18.216-19.592-29.446-20.169-7.139-10.186-20.092-19.157-37.216-25.366-13.005-4.717-28.19-7.458-41.052-6.214 0.478-3.625 1.973-7.844 5.117-11.356 5.726-6.397 15.667-9.641 29.546-9.641 28.437,0 47.283-4.357 56.148-7.021 10.353,15.351 29.192,47.357 29.192,67.042 0,8.712-4.26,16.28-8.111,21.346-1.207-3.143-2.629-6.038-4.178-8.621zm-89.3,137.18c-3.229,3.054-6.522,6.168-9.508,9.418-5.263-5.091-14.437-10.54-31.557-14.69-4.066-0.986-8.261-1.911-12.316-2.805-29.328-6.466-57.091-12.612-65.362-45.242 6.854-0.339 13.792-1.333 20.592-3.016 13.69-3.386 24.674-8.852 31.299-15.321 2.085,10.91 9.584,24.709 30.533,30.28 12.085,3.214 21.092,6.918 26.769,11.01 0.835,0.602 2.728,1.965 5.274,1.965 0.779,0 1.62-0.127 2.51-0.443 2.321-0.824 4.126-2.78 4.768-5.159 0.207-0.767 0.526-1.572 0.939-2.409 3.903,1.847 7.82,4.565 12.198,7.614 0.745,0.519 1.506,1.047 2.278,1.58-0.006,9.802-8.964,18.277-18.417,27.218zm-162.33-198.135c5.602-16.513 16.208-24.709 25.262-28.787-2.358,3.687-4.424,7.095-6.187,10.003-1.672,2.758-3.116,5.14-4.224,6.801-1.381,2.069-2.676,6.959 2.303,10.664 0.411,0.306 1.026,0.742 1.813,1.297 4.529,3.196 15.747,11.116 25.233,21.74-5.474,11.844-10.321,34.6-3.413,55.713 5.35,16.351 16.549,28.682 33.286,36.652 2.882,1.372 5.795,2.58 8.725,3.644-12.001,8.932-44.001,17.776-70.387,7.882-18.59-6.971-29.466-12.229-34.717-15.002 1.95-16.546 9.14-71.8 22.306-110.607zm91.285,1.02c6.69,9.142 17.525,16.133 28.721,19.3-7.854,8.65-12.019,19.177-11.819,29.427-0.752,0.312-1.468,0.745-2.111,1.317-4.201,3.736-8.219,5.216-12.282,4.529-5.67-0.959-14.927-6.578-26.827-27.899-9.722-17.418-26.872-30.945-35.822-37.454 0.247-0.408 0.5-0.824 0.758-1.25 6.72-11.084 16.875-27.836 30.164-39.759 13.313-11.944 26.296-15.836 39.546-11.825-3.539,8.152-8.177,18.551-14.245,31.724-4.839,10.502-3.447,21.827 3.917,31.89zm122.047,56.535c3.673,30.912-19.668,53.567-38.422,71.77-8.13,7.891-15.472,15.017-20.025,22.15-4.947-2.609-12.8-5.963-25.019-9.212-14.613-3.886-18.736-12.665-19.776-18.698 2.636,0.198 5.25,0.297 7.83,0.297 18.443,0 35.185-4.903 46.308-12.392 9.095-6.123 13.854-13.752 13.399-21.48-0.033-0.555-0.129-1.091-0.275-1.606 8.474-2.988 12.496-8.426 14.193-11.59 4.272-7.966 3.022-17.618-3.11-24.017-7.117-7.424-18.329-8.493-29.996-2.86-3.73,1.801-5.294,6.284-3.493,10.015 1.8,3.729 6.283,5.296 10.015,3.493 5.521-2.666 10.249-2.768 12.645-0.269 1.624,1.694 1.914,4.326 0.722,6.549-2.17,4.044-9.549,7.455-23.74,4.904-16.828-3.025-27.701-10.083-30.617-19.874-2.508-8.419 1.071-18.771 9.119-26.373 6.779-6.401 27.32-5.891 46.767,1.16 19.135,6.94 32.276,17.943 33.475,28.033zm-158.512-20.871c11.74,20.505 23.684,31.537 36.472,33.7 1.321,0.223 2.795,0.369 4.394,0.369 4.673,0 10.412-1.253 16.489-5.441 8.505,16.08 28.038,21.954 39.758,24.061 3.933,0.707 7.487,1.048 10.718,1.113 0.001,0.129-0.004,0.256 0.003,0.386 0.101,1.713-1.963,4.899-6.802,8.157-15.766,10.615-47.526,14.751-75.327,1.512-12.884-6.135-21.456-15.479-25.479-27.773-4.185-12.787-2.758-26.466-0.226-36.084zm132.22,120.345c-3.801-2.647-7.482-5.197-11.359-7.329 2.95-3.079 6.276-6.311 9.677-9.611 19.624-19.047 46.338-45.006 43.076-82.102 3.815,2.193 7.455,5.888 10.334,10.687 6.127,10.212 9.532,27.015 0.715,43.548-12.692,23.797-18.409,47.933-20.63,59.698-13.78-2.334-22.927-8.704-31.813-14.891zm-8.461-183.819c-18.328,0-32.029,4.924-40.723,14.637-5.824,6.507-8.025,13.604-8.769,19.086-9.453-1.272-20.14-7.177-25.697-14.77-4.12-5.63-4.928-11.268-2.4-16.754 15.056-32.681 21.526-48.723 24.117-55.617 8.199-0.977 29.564-1.142 57.93,16.634 17.209,10.785 26.925,20.614 32.045,26.959 1.907,2.364 3.322,4.419 4.37,6.11-9.416,1.89-23.094,3.715-40.873,3.715zm-129.945-105.158c8.789-8.139 14.113-17.971 16.97-24.542 18.589,5.93 69.839,21.947 94.77,26.421 26.787,4.808 45.53,15.665 54.204,31.398 6.479,11.753 7.276,25.905 2.44,42.15-6.415-6.06-14.867-12.777-26.016-19.765-41.903-26.259-72.273-18.102-73.545-17.741-2.438,0.69-4.371,2.588-5.125,5.007-0.019,0.062-1.073,3.372-4.84,12.549-29.145-9.91-52.415,8.627-68.735,28.758-7.868,0.574-19.269,3.652-29.86,11.195-4.274-19.371-6.264-52.827 39.737-95.43zm-124.562,72.769c14.813-45.727 51.354-56.921 66.378-59.612 11.725-2.098 20.483-1.165 25.488,0.288-32.873,43.01-23.98,76.94-19.813,92.836 0.096,0.365 0.187,0.713 0.277,1.06-4.249,5.394-7.936,11.913-10.607,19.787-9.225,27.192-15.512,61.208-19.259,85.874-17.784-13.67-63.593-75.01-42.464-140.233zm135.466,302.658c-11.77,5.826-24.724,5.949-38.503,0.362-27.808-11.273-57.24-46.242-71.573-85.037-10.592-28.67-11.507-55.402-2.714-75.926 6.582,7.152 12.762,12.156 17.499,14.273-1.277,9.656-1.935,15.945-2.021,16.777-0.287,2.798 1.015,5.522 3.374,7.055 0.458,0.298 11.582,7.434 41.544,18.669 6.454,2.42 13.548,3.997 20.955,4.76 7.964,39.776 37.14,50.751 65.962,57.648-3.896,10.117-15.089,31.798-34.523,41.419zm164.906,25.194c-8.954,0.041-29.993-0.235-53.193-3.062-39.377-4.798-67.06-14.621-80.056-28.404-0.132-0.14-0.273-0.268-0.413-0.396 9.546-11.529 15.45-24.081 18.036-31.42 2.99,0.663 6.007,1.345 8.914,2.05 15.013,3.639 24.265,8.573 27.498,14.663 0.626,1.179 2.532,4.768 7.003,4.991 0.106,0.005 0.226,0.009 0.355,0.009 1.51,0 4.538-0.459 6.741-3.764 3.108-4.662 8.062-9.347 13.307-14.308 8.905-8.421 18.704-17.7 21.981-29.595 8.019,4.103 17.672,7.432 29.989,8.227 0.163,0.011 0.326,0.016 0.488,0.016 3.75,0 6.96-2.792 7.436-6.563 0.039-0.314 4.143-31.755 20.187-61.837 3.332-6.248 5.348-12.535 6.342-18.648 7.167,5.036 17.598,16.552 23.865,32.628 6.104,15.66 9.513,39.165-8.921,62.207-30.825,38.531-44.702,63.506-49.559,73.206zm123.923-119.999c-2.396,21.319-11.028,38.256-24.965,48.982-11.575,8.907-26.279,13.3-42.088,12.746 1.431-1.825 2.888-3.672 4.402-5.565 15.365-19.207 20.444-42.126 14.792-65.552 14.993-5.217 27.499-18.909 37.453-36.035 5.264,9.844 12.459,27.154 10.406,45.424zm1.085-124.184c-2.963,17.614-8.558,36.909-15.35,52.938-10.972,25.891-24.541,42.725-38.337,47.627-7.75-18.094-21.479-34.149-33.615-39.933 5.43-5.482 16.769-19.062 16.769-36.891 0-31.245-33.742-78.359-35.178-80.35-2.032-2.815-5.759-3.858-8.968-2.533-0.013,0.006-0.133,0.053-0.336,0.13-1.206-2.373-3.075-5.533-5.91-9.298 8.991-23.365 8.721-44.797-0.815-62.093-0.297-0.539-0.606-1.07-0.92-1.599 3.532-3.295 11.654-9.256 23.171-8.048 15.514,1.627 32.433,15.901 48.928,41.276 1.839,2.831 4.169,6.922 6.867,11.66 10.271,18.032 25.695,45.114 45.085,57.51 0.761,2.528 1.675,11.383-1.391,29.604z"/>
</svg>