<?xml version="1.0" encoding="iso-8859-1"?>
<!-- Uploaded to: SVG Repo, www.svgrepo.com, Generator: SVG Repo Mixer Tools -->
<!DOCTYPE svg PUBLIC "-//W3C//DTD SVG 1.1//EN" "http://www.w3.org/Graphics/SVG/1.1/DTD/svg11.dtd">
<svg height="800px" width="800px" version="1.1" id="Capa_1" xmlns="http://www.w3.org/2000/svg" xmlns:xlink="http://www.w3.org/1999/xlink" 
	 viewBox="0 0 52.737 52.737" xml:space="preserve">
<g>
	<path style="fill:#1D1D1B;" d="M42.765,37.677c-0.152,0.411,0.447,0.74,0.731,0.426c2.294-2.413,4.04-2.166,5.238,0.742
		c2.31,1.393,2.695,3.228,1.155,5.505c-1.068,1.966-3.3,3.245-5.342,3.829c-1.112,0.318-2.282,0.468-3.467,0.508
		c-0.042-0.278-0.233-0.532-0.593-0.539c-0.179-0.004-0.349-0.019-0.519-0.035c-0.117-0.06-0.252-0.074-0.396-0.049
		c-6.632-1.003-6.3-11.392-8.443-16.278c-1.521-3.468-3.76-6.543-6.562-9.083C17.204,16.027,6.485,12.609,3.783,2.176
		c0.01-0.05,0.019-0.1,0.029-0.15c0.039-0.201-0.05-0.352-0.181-0.434C3.601,1.458,3.557,1.337,3.529,1.2
		C3.438,0.743,2.756,0.87,2.742,1.307C2.725,1.796,2.73,2.28,2.732,2.765C-1.18,15.557-1.891,31.581,7.394,42.26
		c7.509,8.636,20.216,11.78,30.897,7.965c6.357,0.714,14.401-1.377,14.446-9.057C52.768,35.837,45.039,31.517,42.765,37.677z
		 M7.738,40.181C0.21,30.566,0.982,18.156,2.946,6.717c0.307,2.947,0.947,5.819,1.839,8.616c-0.663-0.349-1.302-0.737-1.951-1.127
		c-0.229-0.137-0.463,0.176-0.281,0.364c0.731,0.762,1.625,1.326,2.567,1.793c0.613,1.782,1.329,3.532,2.135,5.247
		c-1.193-0.474-2.324-1.047-3.409-1.771c-0.396-0.264-0.737,0.356-0.367,0.628c1.343,0.988,2.808,1.796,4.376,2.365
		c1.061,2.122,2.24,4.194,3.542,6.2c-0.589-0.161-1.164-0.366-1.721-0.639c-0.809-0.396-1.519-0.945-2.35-1.296
		c-0.156-0.066-0.281,0.144-0.208,0.271c0.971,1.683,3.2,2.536,5.092,2.892c0.274,0.403,0.549,0.805,0.831,1.203
		c1.219,1.722,2.512,3.437,3.882,5.097c-1.857-0.572-3.647-1.264-5.483-1.971c-0.307-0.118-0.469,0.347-0.215,0.511
		c2.069,1.338,4.504,2.243,6.891,2.864c1.485,1.7,3.058,3.324,4.742,4.8c-1.785-0.033-3.552-0.295-5.285-0.782
		c-0.474-0.133-0.639,0.551-0.199,0.722c2.189,0.849,4.397,1.187,6.715,1.096c1.66,1.342,3.417,2.545,5.289,3.542
		c-1.497,0.075-2.98,0.022-4.522-0.152c-0.365-0.041-0.397,0.505-0.083,0.611c2.167,0.733,4.533,0.891,6.799,0.589
		c0.991,0.422,2.007,0.796,3.059,1.098C24.786,51.501,14.154,48.375,7.738,40.181z M33.875,47.638
		c-0.537-0.167-1.061-0.355-1.579-0.554c-2.086-1.48-2.863-3.835-3.336-6.241c-0.091-0.466-0.705-0.288-0.756,0.102
		c-0.235,1.786,0.337,3.45,1.311,4.879c-1.525-0.799-2.957-1.744-4.323-2.782c-0.024-0.057-0.036-0.116-0.084-0.169
		c-1.773-1.946-2.482-4.322-2.47-6.925c0.002-0.465-0.769-0.602-0.839-0.114c-0.249,1.742,0.029,3.43,0.708,4.969
		c-1.16-1.058-2.265-2.185-3.331-3.351c-0.011-0.04-0.004-0.08-0.026-0.119c-1.46-2.575-1.658-5.191-1.393-8.082
		c0.038-0.413-0.576-0.455-0.694-0.094c-0.633,1.932-0.53,3.983,0.033,5.91c-1.327-1.589-2.596-3.236-3.803-4.928
		c0.093-0.11,0.146-0.248,0.082-0.419c-0.94-2.491-0.755-4.801-0.211-7.351c0.075-0.354-0.419-0.602-0.607-0.256
		c-0.973,1.793-1.122,3.879-0.746,5.861c-1.122-1.707-2.167-3.463-3.112-5.27c0.06-0.103,0.094-0.219,0.047-0.338
		c-0.621-1.558-0.539-3.032-0.163-4.636c0.097-0.413-0.507-0.713-0.713-0.301c-0.376,0.753-0.548,1.568-0.565,2.389
		c-0.378-0.844-0.738-1.695-1.067-2.561c-0.075-0.196-0.135-0.396-0.207-0.593c0.228-0.067,0.387-0.3,0.243-0.566
		c-0.661-1.224-0.136-2.222,0.562-3.257c0.2-0.296-0.178-0.573-0.447-0.447c-0.686,0.321-1.061,0.977-1.199,1.706
		c-0.609-2.06-1.077-4.156-1.356-6.299c-0.052-0.4-0.308-1.919-0.515-3.158c0.011-0.058,0.021-0.117,0.032-0.175
		C5.379,14.553,19.98,18.923,25.952,25.834c4.775,5.526,4.676,11.621,7.229,17.961c0.802,1.991,1.998,3.579,3.611,4.555
		C35.791,48.167,34.809,47.928,33.875,47.638z"/>
</g>
</svg>