<?xml version="1.0" encoding="iso-8859-1"?>
<!-- Uploaded to: SVG Repo, www.svgrepo.com, Generator: SVG Repo Mixer Tools -->
<svg fill="#000000" height="800px" width="800px" version="1.1" id="Layer_1" xmlns="http://www.w3.org/2000/svg" xmlns:xlink="http://www.w3.org/1999/xlink" 
	 viewBox="0 0 512.002 512.002" xml:space="preserve">
<g>
	<g>
		<path d="M481.834,219.247c-2.789-2.008-6.576-1.911-9.26,0.238c-0.377,0.301-38.051,30.257-68.455,36.937
			c-0.403,0.09-1.016,0.224-1.445-0.771c-0.463-1.072,0.143-1.483,0.469-1.704c22.219-15.1,53.391-39.718,75.711-71.24
			c0.997-1.406,1.489-3.107,1.398-4.829l-2.552-48.466c-0.163-3.095-2.176-5.788-5.099-6.819c-2.921-1.03-6.18-0.198-8.25,2.108
			c-0.131,0.147-13.279,14.761-28.682,28.008c-18.285,15.724-28.961,20.212-33.817,20.46c2.187-5.963,10.805-18.534,17.332-28.057
			c24.289-35.431,60.989-88.968,23.952-121.582c-0.004-0.004-0.008-0.008-0.012-0.012c-0.002-0.002-0.005-0.003-0.007-0.005
			c-0.006-0.006-0.012-0.011-0.018-0.017l-3.135-2.755c-37.102-32.61-85.509,10.683-117.54,39.331
			c-8.605,7.696-19.964,17.855-25.598,20.79c-0.376-4.838,2.691-15.969,15.877-36.054c11.151-16.984,24.037-32.002,24.166-32.151
			c2.022-2.35,2.429-5.686,1.03-8.452s-4.327-4.42-7.416-4.182l-48.393,3.691c-0.038,0.003-0.074,0.014-0.11,0.018
			c-0.386,0.036-0.769,0.092-1.144,0.185c-0.017,0.004-0.034,0.01-0.051,0.015c-0.368,0.094-0.727,0.219-1.078,0.366
			c-0.044,0.018-0.089,0.034-0.132,0.053c-0.346,0.153-0.68,0.335-1.002,0.539c-0.049,0.032-0.098,0.062-0.146,0.095
			c-0.32,0.212-0.625,0.447-0.913,0.71c-0.01,0.009-0.022,0.016-0.033,0.026c-31.417,28.97-52.879,67.364-63.701,89.752
			c-0.42-22.741,15.113-57.549,28.035-78.8c1.787-2.937,1.4-6.705-0.95-9.215c-2.35-2.51-6.082-3.147-9.132-1.559l-47.604,24.809
			c-0.905,0.472-1.706,1.12-2.358,1.905c-1.493,1.802-2.914,3.634-4.302,5.48c-0.206,0.241-0.397,0.497-0.574,0.766
			c-28.959,39.022-35.187,87.115-35.14,121.401c0,0.435,0.001,0.976-0.984,1.126c-1.007,0.145-1.166-0.374-1.297-0.796
			c-8.859-28.704-3.206-58.001-3.149-58.284c0.639-3.177-0.789-6.413-3.569-8.079c-2.779-1.667-6.305-1.404-8.807,0.657
			l-46.724,38.484c-1.052,0.866-1.853,1.996-2.322,3.276c-15.633,42.652-5.686,94.083,5.413,129.718
			c0.095,0.305,0.059,0.347-0.005,0.424c-0.183,0.215-0.485,0.306-0.581,0.31c0-0.001-0.083-0.04-0.228-0.202
			c-22.136-24.826-24.177-49.579-24.194-49.794c-0.233-3.615-2.966-6.573-6.553-7.088c-3.587-0.52-7.042,1.551-8.284,4.955
			c-15.604,42.719-14.991,79.181,1.819,108.368c14.65,25.436,38.504,39.918,57.171,47.837
			c-15.515,12.519-43.084,40.379-69.478,95.196c-3.614,7.504-3.974,15.93-1.017,23.724c2.961,7.806,8.832,13.88,16.528,17.104
			l5.87,2.46c3.739,1.567,7.7,2.347,11.654,2.347c4.651,0,9.295-1.079,13.556-3.224c7.854-3.952,13.561-11.108,15.659-19.631
			c5.859-23.791,19.148-65.102,44.134-85.874c10.556,17.73,28.558,40.058,56.469,51.776c12.509,5.253,25.805,7.875,39.837,7.874
			c5.513,0,11.141-0.414,16.875-1.223c0.645,0.171,1.299,0.263,1.946,0.263c1.52,0,3-0.463,4.253-1.298
			c14.639-2.768,29.956-8.085,45.895-15.979c3.259-1.614,4.918-5.298,3.99-8.815c-0.927-3.516-4.207-5.882-7.849-5.692
			c-0.275,0.019-26.132,1.199-54.349-18.876c33.088,6.002,89.246,11.164,131.59-10.884c1.208-0.629,2.227-1.569,2.951-2.723
			l32.168-51.278c1.721-2.743,1.526-6.269-0.479-8.81c-2.003-2.54-5.395-3.545-8.463-2.514c-0.345,0.115-33.25,10.972-65.249,2.869
			c33.416-3.429,89.941-15.485,128.52-56.885c0.696-0.746,1.236-1.626,1.587-2.582l18.493-50.395
			C485.735,224.875,484.623,221.255,481.834,219.247z M406.55,136.454c-15.246,22.24-22.47,33.335-20.112,42.413
			c0.876,3.372,3.105,6.097,6.276,7.674c11.715,5.828,28.539-1.232,52.941-22.217c6.578-5.657,12.698-11.478,17.679-16.434
			l1.39,26.396c-37.815,29.302-77.909,40.958-119.222,34.613c-19.582-3.004-34.969-9.574-43.953-14.212L438.133,40.688
			C454.004,63.17,432.361,98.804,406.55,136.454z M287.22,18.685l26.781-2.043c-4.274,5.578-9.263,12.395-14.028,19.645
			c-17.679,26.895-22.52,44.484-15.236,55.356c1.972,2.943,4.961,4.802,8.416,5.238c9.302,1.166,19.38-7.416,39.479-25.39
			c35.701-31.929,69.789-59.023,94.454-41.428L289.623,185.05c-5.601-7.699-15.018-22.683-21.072-43.288
			C256.717,101.49,263.004,60.1,287.22,18.685z M190.247,46.569c0.768-1.008,1.546-2.011,2.349-3.002l24.269-12.648
			c-2.923,6.076-6.02,13.029-8.828,20.384c-12.429,32.558-12.81,56.161-1.131,70.156c1.737,2.082,4.446,3.085,7.121,2.649
			c2.675-0.439,4.92-2.262,5.9-4.789c0.168-0.433,12.155-30.918,34.309-62.915c-10.564,36.556-6.866,67.606-0.381,89.677
			c7.41,25.218,19.352,42.847,25.39,50.671l-44.944,50.674c-7.341-8.865-21.432-27.646-33.128-53.647
			C179.356,145.274,175.689,95.754,190.247,46.569z M119.269,118.579c-0.493,12.424,0.278,29.395,5.566,46.529
			c2.462,7.978,9.958,12.676,18.226,11.424c8.259-1.252,14.019-7.949,14.008-16.291c-0.027-19.393,2.068-43.486,9.644-67.411
			c-2.483,44.074,8.831,81.468,20.737,107.773c13.263,29.304,29.089,49.669,36.564,58.422l-43.606,49.166
			c-17.572-23.81-72.83-104.117-75.948-176.204c-0.016-0.375-0.068-0.739-0.136-1.099L119.269,118.579z M47.542,245.287
			c4.156,9.536,10.585,20.656,20.523,31.801c5.063,5.68,12.915,6.977,19.541,3.226c6.554-3.709,9.569-11.319,7.331-18.506
			c-8.375-26.893-20.18-77.605-6.338-117.965l1.297-1.068c3.593,35.698,18.079,76.172,43.157,120.5
			c15.32,27.078,30.206,47.687,36.962,56.636l-14.88,16.777c-0.053,0.023-0.104,0.052-0.156,0.077
			c-12.8,0.326-67.249-2.721-110.113-72.834C45.296,257.925,46.176,251.714,47.542,245.287z M77.361,485.485
			c-1.027,4.17-3.824,7.674-7.674,9.611c-3.879,1.953-8.4,2.111-12.404,0.433l-5.87-2.46c-3.784-1.586-6.67-4.574-8.126-8.412
			c-1.452-3.827-1.276-7.963,0.496-11.644c31.429-65.275,64.488-89.992,73.141-95.637c3.368,0.968,6.053,1.607,7.795,1.985
			l0.1,0.089c0.771,2.09,2.169,5.625,4.25,10.067C100.62,411.319,85.284,453.313,77.361,485.485z M130.147,364.861
			c-0.186-0.048-0.369-0.106-0.557-0.14c-0.513-0.093-51.438-9.682-74.083-49.128c-3.889-6.775-6.72-14.076-8.539-21.86
			c23.819,30.031,49.158,44.316,67.762,51.098c10.527,3.838,19.911,5.705,27.351,6.574L130.147,364.861z M198.873,440.972
			c-35.991-15.053-53.692-52.104-58.694-64.34l13.142-14.818c1.835,7.148,4.862,15.962,9.859,25.6
			c8.918,17.197,25.792,39.865,57.267,59.347C212.947,445.763,205.746,443.847,198.873,440.972z M366.128,387.76
			c-40.568,20.074-95.802,13.329-125.388,7.441c-6.456-1.284-12.651,1.866-15.409,7.844c-2.764,5.989-1.143,12.76,4.036,16.849
			c14.514,11.462,28.753,17.826,40.521,21.346c-6.316,2.044-12.481,3.58-18.499,4.636c-34.413-15.581-60.029-37.909-74.2-64.728
			c-7.928-15.003-10.335-27.744-11.062-33.772l15.524-17.503c10.15,5.747,32.043,17.51,60.061,28.9
			c44.823,18.221,84.966,27.412,119.618,27.412c1.969,0,3.915-0.04,5.849-0.099L366.128,387.76z M329.532,323.181
			c-6.913,0.575-12.283,5.791-13.062,12.68c-0.777,6.9,3.302,13.191,9.921,15.298c22.452,7.146,45.369,5.583,60.847,2.949
			l-10.156,16.189c-0.49-0.054-0.992-0.065-1.502-0.023c-71.013,6.089-156.498-37.241-183.509-52.15l43.615-49.176
			c10.303,6.578,31.865,18.88,61.192,27.832c18.661,5.696,42.299,10.482,69.059,10.482c13.162,0,27.086-1.178,41.535-3.956
			C378.719,316.838,348.832,321.573,329.532,323.181z M452.221,271.746c-0.686,0.72-1.392,1.409-2.091,2.11
			c-47.16,21.098-97.033,23.937-148.244,8.436c-25.892-7.837-45.61-18.648-55.878-24.981l45.078-50.825
			c9.355,5.2,27.396,13.646,51.339,17.438c7.242,1.147,15.348,1.897,24.166,1.897c19.135,0,41.61-3.54,65.8-14.246
			c-13.303,12.109-26.745,22.154-37.856,29.706c-6.707,4.557-9.145,12.958-5.928,20.431c3.197,7.426,10.931,11.403,18.8,9.673
			c18.917-4.156,39.469-15.689,54.233-25.307L452.221,271.746z"/>
	</g>
</g>
</svg>