<?xml version="1.0" encoding="utf-8"?><!-- Uploaded to: SVG Repo, www.svgrepo.com, Generator: SVG Repo Mixer Tools -->
<svg fill="#000000" width="800px" height="800px" viewBox="0 0 1024 1024" xmlns="http://www.w3.org/2000/svg"><path d="M482.425 288.322l-15.105.113c-172.181 0-311.828 140.786-311.828 314.532 0 173.754 139.646 314.542 311.688 314.543l22.525-.154c272.421 0 493.332-222.718 493.332-497.531 0-107.818-34.085-210.3-95.977-294.942-92.738 104.748-242.926 163.44-404.635 163.439zM874.793 76.247c8.785-7.124 21.683-5.777 28.806 3.009 77.405 95.458 120.397 214.714 120.397 340.569 0 297.36-239.175 538.491-534.152 538.49l-22.525.154c-194.879 0-352.788-159.201-352.788-355.502 0-196.293 157.912-355.492 352.634-355.491l15.105-.113c159.835 0 306.312-61.009 388.708-167.218a20.706 20.706 0 011.831-2.061 20.537 20.537 0 011.984-1.835z"/><path d="M356.068 624.996C276.967 729.458 153.925 792.034 20.477 792.034c-11.311 0-20.48 9.169-20.48 20.48s9.169 20.48 20.48 20.48c146.415 0 281.484-68.692 368.245-183.272 6.828-9.017 5.053-21.862-3.964-28.691s-21.862-5.053-28.691 3.964z"/></svg>