<?xml version="1.0" ?>
<!DOCTYPE svg  PUBLIC '-//W3C//DTD SVG 1.1//EN'  'http://www.w3.org/Graphics/SVG/1.1/DTD/svg11.dtd'>
<!-- Uploaded to: SVG Repo, www.svgrepo.com, Generator: SVG Repo Mixer Tools -->
<svg fill="#000000" width="800px" height="800px" viewBox="0 0 100 100" style="fill-rule:evenodd;clip-rule:evenodd;stroke-linejoin:round;stroke-miterlimit:2;" version="1.1" xml:space="preserve" xmlns="http://www.w3.org/2000/svg" xmlns:serif="http://www.serif.com/" xmlns:xlink="http://www.w3.org/1999/xlink">
<g id="Icon">
<path d="M56.513,25.476c-0.031,0.032 -0.06,0.066 -0.086,0.103c-0.957,1.306 -1.821,2.665 -2.622,4.057c0.223,-1.266 0.388,-2.552 0.521,-3.808c0.046,-0.442 0.078,-0.883 0.097,-1.322c0.047,-0.087 0.082,-0.182 0.102,-0.283c0.818,-4.117 2.546,-8.09 2.933,-12.282c0.119,-1.293 0.135,-2.884 -0.571,-4.031c-0.538,-0.875 -1.39,-1.635 -2.528,-1.033c-0.839,0.444 -1.407,1.529 -1.719,2.362c-0.693,1.848 -0.703,4.059 -0.653,6.004c0.089,3.479 0.719,6.874 0.35,10.375c-0.201,1.897 -0.477,3.868 -0.927,5.721c-0.445,1.832 -1.047,3.525 -1.284,5.407c-0.007,0.051 -0.009,0.102 -0.008,0.153c-0.458,0.976 -0.912,1.954 -1.372,2.927l-0.03,0.036c-0.125,0.149 -0.2,0.324 -0.225,0.503c-1.189,2.5 -2.429,4.97 -3.882,7.319c-0.473,0.765 -0.97,1.516 -1.48,2.259c-0.078,-1.427 -0.099,-2.859 -0.019,-4.253c0.138,-2.394 0.452,-4.99 1.187,-7.315c0.024,-0.056 0.042,-0.114 0.056,-0.174c0.075,-0.232 0.155,-0.46 0.24,-0.686c1.403,-3.742 3.532,-7.175 4.079,-11.184c0.262,-1.919 0.385,-3.828 -0.207,-5.698c-0.118,-0.372 -0.265,-0.872 -0.498,-1.283c-0.239,-0.419 -0.563,-0.754 -0.966,-0.943c-1.396,-0.658 -2.531,0.249 -3.019,1.483c-0.624,1.577 -0.804,3.492 -1.074,5.159c-0.696,4.303 -0.713,8.532 -0.538,12.788c-0.768,2.467 -1.111,5.207 -1.256,7.738c-0.131,2.276 -0.009,4.65 0.204,6.944c-1.985,2.794 -3.946,5.586 -5.225,8.729c-0.043,-1.796 0.147,-3.617 0.422,-5.424c0.033,-0.102 0.051,-0.21 0.05,-0.323c0.265,-1.685 0.598,-3.354 0.879,-4.976c0.494,-2.856 1.062,-5.942 0.344,-8.815c-0.772,-3.089 -2.751,-6.452 -4.924,-8.75c-0.427,-0.451 -1.684,-1.334 -2.743,-1.551c-0.635,-0.13 -1.215,-0.04 -1.658,0.258c-0.328,0.221 -0.606,0.559 -0.758,1.08c-0.294,1.01 -0.06,1.966 0.414,2.858c0.364,0.685 0.877,1.327 1.262,1.925c1.232,1.917 2.295,4.078 3.106,6.204c1.159,3.037 1.79,6.365 1.972,9.605c0.039,0.703 0.072,1.407 0.102,2.111c-0.438,2.889 -0.68,5.819 -0.21,8.642c0.067,0.401 0.148,0.801 0.24,1.199c0.044,0.19 0.091,0.38 0.14,0.57c0.015,0.058 0.035,0.113 0.059,0.166c-0.475,3.065 -0.444,6.135 -0.163,9.202c-0.711,-1.24 -1.353,-2.524 -2.214,-3.672c-0.551,-0.735 -1.125,-1.448 -1.709,-2.153c-0.921,-2.803 -1.776,-5.632 -2.728,-8.423c-1.064,-3.122 -1.805,-6.44 -3.176,-9.447c-0.781,-1.712 -2.195,-2.529 -3.428,-2.343c-0.849,0.128 -1.725,0.711 -2.315,2.009c-0.587,1.292 -0.501,2.787 -0.195,4.13c0.719,3.155 3.078,5.788 4.817,8.424c1.586,2.404 3.495,4.524 5.321,6.723l0.084,0.101c0.591,0.713 1.172,1.436 1.729,2.179c1.185,1.58 1.944,3.426 3.061,5.045c0.446,0.648 0.89,1.303 1.319,1.969c0.567,3.738 1.316,7.462 1.781,11.153c0.069,0.548 0.57,0.936 1.117,0.867c0.548,-0.069 0.936,-0.569 0.867,-1.117c-0.094,-0.747 -0.2,-1.494 -0.315,-2.244c0.004,-0.034 0.005,-0.069 0.005,-0.104c0,-4.525 -0.247,-8.875 0.697,-13.343c0.222,-1.053 0.36,-2.155 0.752,-3.163c0.196,-0.506 0.457,-0.991 0.748,-1.461c2.855,-2.223 5.901,-4.21 8.913,-6.246c1.415,-0.956 2.804,-1.945 3.744,-3.398c0.174,-0.268 0.432,-0.635 0.573,-1.006c0.169,-0.442 0.192,-0.894 0.035,-1.307c-0.26,-0.681 -0.821,-1.023 -1.574,-1.05c-0.906,-0.033 -2.232,0.576 -2.629,0.791c-2.715,1.476 -5.107,3.561 -7.114,5.896c-0.873,1.016 -1.546,2.157 -2.296,3.262c-0.394,0.582 -0.816,1.174 -1.205,1.785c-0.023,0.031 -0.043,0.063 -0.061,0.096c-0.389,0.616 -0.741,1.251 -0.999,1.915c-0.43,1.108 -0.6,2.314 -0.844,3.472c-0.223,1.054 -0.382,2.1 -0.496,3.145c-0.544,-4.114 -0.753,-8.24 0.043,-12.354c0.971,-5.016 4.022,-8.946 6.918,-12.993c0.021,-0.012 0.041,-0.025 0.061,-0.038c1.882,-1.286 3.782,-2.526 5.913,-3.435c0.539,-0.23 1.09,-0.442 1.647,-0.64c0.045,-0.012 0.089,-0.028 0.131,-0.046c2.264,-0.794 4.649,-1.37 6.927,-2.021c2.827,-0.808 5.467,-2.054 7.78,-3.89c0.965,-0.765 2.053,-1.708 2.496,-2.899c0.614,-1.648 -0.408,-3.706 -2.188,-4.011c-1.786,-0.306 -4.306,0.616 -5.815,1.475c-4.12,2.347 -7.091,6.027 -10.18,9.573c-0.536,0.193 -1.064,0.398 -1.583,0.619c-0.844,0.36 -1.655,0.768 -2.444,1.21c1.413,-2.344 2.624,-4.803 3.795,-7.286c2.092,-2.436 4.6,-4.38 7.192,-6.226c1.005,-0.425 2.013,-0.844 3.029,-1.248c0.546,-0.217 1.093,-0.429 1.644,-0.636c3.357,-1.26 6.923,-2.201 10.094,-3.883c1.786,-0.947 3.775,-1.837 5.264,-3.243c0.92,-0.87 1.61,-1.842 1.477,-3.152c-0.051,-0.503 -0.344,-0.902 -0.924,-1.093c-0.261,-0.086 -0.63,-0.122 -1.029,-0.099c-0.658,0.037 -1.427,0.216 -1.586,0.249c-2.169,0.453 -4.149,1.52 -6.034,2.641c-1.754,1.042 -3.633,1.897 -5.325,3.037c-1.588,1.071 -2.962,2.422 -4.526,3.523c-1.026,0.722 -2.058,1.435 -3.08,2.163c-0.051,0.03 -0.099,0.064 -0.143,0.102c-1.252,0.894 -2.485,1.809 -3.666,2.785c1.505,-3.125 3.12,-6.192 5.172,-9.017c0.038,-0.039 0.073,-0.081 0.105,-0.126l0.164,-0.231c0.076,-0.075 0.14,-0.164 0.19,-0.265c1.618,-2.251 3.552,-4.61 5.814,-6.151c1.861,-1.269 4.158,-2.396 6.043,-3.848c2.094,-1.613 3.694,-3.612 3.928,-6.477c0.03,-0.365 -0.066,-0.78 -0.192,-1.114c-0.461,-1.226 -1.156,-1.768 -1.871,-1.965c-0.694,-0.191 -1.484,-0.042 -2.276,0.362c-0.786,0.401 -1.594,1.054 -2.283,1.617c-0.343,0.281 -0.672,0.578 -0.988,0.888c-2.323,2.282 -3.812,4.934 -5.466,7.713c-1.581,2.656 -3.269,5.126 -4.463,7.99l-0.144,0.202Zm-4.578,33.971c-0.457,0.137 -0.897,0.358 -1.073,0.454c-2.503,1.36 -4.702,3.289 -6.552,5.442l-0.076,0.09c1.459,-1.003 2.936,-1.984 4.405,-2.977c1.191,-0.805 2.393,-1.604 3.184,-2.827c0.029,-0.045 0.069,-0.11 0.112,-0.182Zm-24.646,5.858c-0.392,-1.23 -0.79,-2.458 -1.206,-3.679c-1.043,-3.059 -1.759,-6.315 -3.103,-9.262c-0.199,-0.436 -0.455,-0.784 -0.75,-1.004c-0.18,-0.133 -0.369,-0.221 -0.56,-0.192c-0.324,0.049 -0.567,0.365 -0.792,0.86c-0.406,0.893 -0.277,1.929 -0.066,2.858c0.667,2.924 2.925,5.323 4.537,7.767c0.606,0.92 1.261,1.797 1.94,2.652Zm2.321,-31.941c-0.112,0.462 0.057,0.891 0.275,1.302c0.338,0.635 0.821,1.227 1.178,1.782c1.306,2.032 2.433,4.32 3.293,6.573c0.63,1.652 1.115,3.385 1.463,5.145c0.317,-1.987 0.513,-4.032 0.028,-5.971c-0.694,-2.777 -2.482,-5.795 -4.436,-7.86c-0.226,-0.239 -0.823,-0.664 -1.403,-0.881c-0.117,-0.043 -0.294,-0.075 -0.398,-0.09Zm24.644,11.933c1.25,-0.353 2.504,-0.683 3.729,-1.033c2.573,-0.735 4.98,-1.862 7.086,-3.533c0.695,-0.552 1.546,-1.172 1.865,-2.03c0.2,-0.538 -0.07,-1.243 -0.652,-1.343c-1.386,-0.238 -3.316,0.575 -4.487,1.242c-2.977,1.696 -5.307,4.141 -7.541,6.697Zm-9.976,-12.115c1.044,-2.295 2.066,-4.585 2.412,-7.122c0.222,-1.624 0.37,-3.24 -0.132,-4.823c-0.072,-0.227 -0.15,-0.523 -0.274,-0.789c-0.041,-0.088 -0.055,-0.195 -0.134,-0.232c-0.061,-0.028 -0.091,0.039 -0.126,0.082c-0.076,0.095 -0.136,0.21 -0.183,0.328c-0.573,1.448 -0.711,3.212 -0.958,4.743c-0.425,2.624 -0.586,5.221 -0.605,7.813Zm32.711,-9.763c-0.463,0.054 -0.917,0.163 -1.026,0.186c-1.953,0.407 -3.724,1.393 -5.422,2.402c-1.72,1.023 -3.568,1.858 -5.228,2.977c-0.588,0.396 -1.146,0.832 -1.696,1.278c2.645,-0.904 5.344,-1.742 7.797,-3.044c1.632,-0.865 3.468,-1.646 4.828,-2.93c0.291,-0.275 0.587,-0.543 0.747,-0.869Zm-14.507,-4.52c0.203,-0.154 0.409,-0.302 0.616,-0.444c1.832,-1.248 4.095,-2.351 5.95,-3.78c1.647,-1.269 2.97,-2.801 3.154,-5.055c0.007,-0.083 -0.042,-0.171 -0.07,-0.247c-0.155,-0.411 -0.29,-0.675 -0.53,-0.74c-0.26,-0.072 -0.54,0.064 -0.837,0.215c-0.666,0.34 -1.341,0.906 -1.925,1.384c-0.296,0.242 -0.58,0.499 -0.852,0.766c-2.197,2.158 -3.585,4.681 -5.149,7.309c-0.119,0.199 -0.238,0.396 -0.357,0.592Zm-7.393,-10.081c-0.067,0.079 -0.126,0.172 -0.182,0.264c-0.17,0.282 -0.296,0.595 -0.395,0.86c-0.605,1.614 -0.569,3.551 -0.526,5.25c0.024,0.922 0.083,1.839 0.152,2.753c0.592,-2.038 1.134,-4.084 1.328,-6.188c0.083,-0.894 0.205,-2.006 -0.282,-2.799c-0.024,-0.039 -0.059,-0.089 -0.095,-0.14Z"/>
</g>
</svg>